<svg width="353" height="444" viewBox="0 0 353 444" fill="none" xmlns="http://www.w3.org/2000/svg">
<path d="M90.8484 278.349C91.3617 279.247 92.0033 280.016 92.9015 280.401C93.7997 280.914 94.6979 280.914 95.5962 280.657C96.4944 280.401 97.3926 279.632 98.1625 278.349C98.4191 279.247 98.6758 279.888 99.189 280.273C99.7023 280.657 100.216 280.914 100.729 280.914C101.37 280.914 102.012 280.785 102.654 280.529C103.295 280.273 103.937 280.016 104.578 279.632C105.22 279.247 105.733 278.862 106.246 278.349C106.76 277.965 107.145 277.452 107.53 277.196C108.171 277.837 108.684 278.606 108.813 279.632C109.069 280.657 109.069 281.811 108.941 282.965C108.813 284.247 108.556 285.401 108.3 286.683C107.915 287.965 107.53 289.119 107.016 290.273C106.503 291.427 105.99 292.325 105.477 293.222C104.963 294.12 104.45 294.632 103.937 295.017C103.552 295.273 103.423 295.53 103.423 295.915C103.423 296.299 103.552 296.556 103.808 296.812C104.065 297.068 104.322 297.197 104.707 297.325C105.092 297.453 105.477 297.325 105.733 296.94C106.375 296.684 107.016 295.915 107.658 294.761C108.3 293.607 108.941 292.196 109.583 290.658C110.224 289.119 110.609 287.324 111.123 285.529C111.507 283.734 111.764 281.939 111.764 280.273C111.764 278.606 111.507 277.067 110.994 275.785C110.481 274.503 109.583 273.606 108.428 273.221C108.171 273.093 107.915 273.221 107.401 273.606C106.888 273.99 106.375 274.375 105.733 274.888C105.092 275.401 104.45 275.913 103.808 276.426C103.167 276.939 102.525 277.196 102.012 277.324C101.499 277.452 101.114 277.324 100.729 276.939C100.472 276.554 100.344 275.785 100.344 274.503C100.216 274.247 100.087 273.99 99.8306 273.862C99.7023 273.606 99.4457 273.477 99.189 273.349C98.9324 273.221 98.8041 273.221 98.5475 273.349C98.2908 273.477 98.1625 273.606 98.0342 273.99C97.5209 274.759 97.0076 275.401 96.4944 276.042C95.8528 276.683 95.3395 277.067 94.8263 277.324C94.313 277.58 93.928 277.58 93.5431 277.196C93.2865 276.939 93.1581 276.298 93.2865 275.272C93.2865 274.759 93.0298 274.247 92.6449 273.862C92.2599 273.477 91.875 273.221 91.3617 273.221C90.9768 273.093 90.5918 273.221 90.3352 273.477C90.0785 273.734 90.0785 274.247 90.3352 275.016C90.2069 276.298 90.3352 277.452 90.8484 278.349Z" fill="black" fill-opacity="0.1"/>
<path d="M30.7961 339.379C29.3846 339.507 27.9731 339.507 26.8182 339.507C26.8182 339.122 26.6899 338.737 26.6899 338.353C26.6899 337.968 26.6899 337.584 26.6899 337.327C26.6899 336.814 26.5616 336.43 26.305 336.301C26.0483 336.173 25.7917 336.173 25.4068 336.301C25.0218 336.43 24.7652 336.686 24.3802 336.943C24.1236 337.199 23.867 337.455 23.7386 337.712C23.6103 337.968 23.6103 338.353 23.6103 338.738C23.6103 339.122 23.6103 339.507 23.482 339.763C23.2254 339.891 22.8404 339.891 22.4555 340.02C21.9422 340.02 21.4289 340.148 20.7873 340.148C20.1458 340.148 19.6325 340.148 18.9909 340.276C18.3493 340.276 17.8361 340.276 17.4511 340.404H17.3228C16.8095 340.532 16.2962 340.661 16.1679 340.917C15.9113 341.174 15.783 341.43 15.9113 341.815C15.9113 342.199 16.1679 342.456 16.4246 342.712C16.6812 342.969 17.0662 343.225 17.4511 343.225C18.606 343.353 19.7608 343.353 20.659 343.225C21.6856 343.225 22.7121 343.097 23.867 343.097V346.558C22.9687 346.687 22.0705 346.815 21.044 346.815C20.0174 346.815 18.9909 346.943 18.0927 347.2C17.7077 347.328 17.4511 347.456 17.3228 347.712C17.0662 347.969 17.0661 348.225 16.9378 348.482C16.9378 348.738 16.9378 348.995 17.1945 349.251C17.3228 349.507 17.7077 349.636 18.0927 349.636C18.9909 349.636 20.0174 349.636 20.9157 349.507C21.9422 349.379 22.8404 349.379 23.7386 349.379C23.7386 350.277 23.7386 351.174 23.7386 351.943C23.7386 352.841 23.7386 353.61 23.7386 354.508C22.4555 354.379 21.1723 354.379 20.0174 354.379C18.8626 354.379 17.5794 354.508 16.2962 354.764C16.1679 354.892 16.0396 355.021 15.9113 355.149C15.783 355.277 15.6547 355.405 15.6547 355.662C15.6547 355.79 15.6547 356.046 15.783 356.174C15.9113 356.303 16.1679 356.559 16.5529 356.687C17.3228 356.944 17.8361 356.944 18.0927 357.072C18.3493 357.072 18.7343 357.2 18.9909 357.2C19.3759 357.2 19.7608 357.2 20.4024 357.2C21.044 357.2 21.9422 357.2 23.3537 357.2C23.482 357.969 23.6103 358.739 23.6103 359.636C23.6103 360.405 23.6103 361.175 23.6103 362.072C23.6103 362.841 23.6103 363.611 23.6103 364.38C23.6103 365.149 23.7386 365.919 23.867 366.56C23.9953 367.072 24.1236 367.329 24.3802 367.457C24.6369 367.585 24.8935 367.585 25.0218 367.585C25.2784 367.457 25.5351 367.329 25.7917 367.201C26.0483 367.072 26.305 366.816 26.4333 366.688V362.97V360.405C26.4333 359.764 26.4333 359.123 26.4333 358.739C26.4333 358.226 26.4333 357.841 26.4333 357.457C27.9731 357.457 29.3846 357.457 30.5394 357.457C31.8226 357.457 33.3624 357.457 35.0305 357.328C35.4155 357.328 35.8004 357.2 35.9287 356.944C36.0571 356.687 36.1854 356.431 36.0571 356.174C36.0571 355.918 35.9287 355.662 35.6721 355.405C35.5438 355.149 35.2872 355.02 35.0305 354.892C33.619 354.764 32.2076 354.764 30.5394 354.764C28.8713 354.764 27.3315 354.764 26.0483 354.636C26.0483 353.738 26.0483 352.969 26.0483 352.072C26.0483 351.174 26.0483 350.405 26.0483 349.507C26.1767 349.507 26.6899 349.507 27.4598 349.507C28.2297 349.507 29.1279 349.507 30.0262 349.379C30.9244 349.379 31.8226 349.251 32.7208 349.251C33.4907 349.251 34.1323 349.123 34.3889 348.995C34.7739 348.738 35.0305 348.482 35.0305 347.969C35.0305 347.456 34.7739 347.071 34.3889 346.943C33.2341 346.815 31.8226 346.815 30.4111 346.815C28.9996 346.815 27.7165 346.815 26.4333 346.815C26.4333 346.302 26.4333 345.661 26.4333 345.02C26.4333 344.379 26.5616 343.738 26.6899 343.225C27.8448 342.969 28.9996 342.84 30.4111 342.84C31.8226 342.84 33.1058 342.584 34.2606 342.327C34.7739 342.199 35.1588 342.071 35.2872 341.943C35.5438 341.686 35.5438 341.558 35.5438 341.302C35.5438 341.045 35.4155 340.789 35.2872 340.532C35.1588 340.276 34.9022 340.02 34.6456 339.891C33.619 339.122 32.2076 339.25 30.7961 339.379Z" fill="black" fill-opacity="0.1"/>
<path d="M38.7517 162.958C38.1102 161.932 37.2119 160.779 36.1854 159.881C35.1589 158.855 33.8757 157.958 32.4642 157.06C31.0527 156.163 29.5129 155.265 27.9731 154.496C29.3846 153.855 30.6678 153.086 31.566 152.188C32.5925 151.291 32.9775 150.265 32.9775 148.983C32.9775 148.342 32.8492 147.829 32.4642 147.316C32.2076 146.803 31.6943 146.29 31.181 145.778C30.6678 145.393 29.8979 145.008 29.128 144.752C28.3581 144.496 27.3315 144.367 26.4333 144.367C25.2785 144.367 24.2519 144.496 23.2254 144.752C22.1989 145.008 21.4289 145.393 20.659 145.906C19.8891 146.419 19.3759 146.932 18.9909 147.573C18.606 148.214 18.3493 148.983 18.3493 149.752C18.3493 150.393 18.4777 150.906 18.606 151.419C18.7343 151.932 18.9909 152.445 19.2476 152.829C19.5042 153.342 20.0175 153.727 20.5307 154.24C21.044 154.753 21.8139 155.265 22.7121 155.906C21.429 156.419 20.1458 157.189 18.8626 157.958C17.5794 158.727 16.4246 159.625 15.3981 160.522C14.3715 161.548 13.4733 162.574 12.8317 163.727C12.1901 164.881 11.8052 166.035 11.8052 167.317C11.8052 168.215 11.9335 169.112 12.3184 169.753C12.5751 170.394 13.0883 170.907 13.6016 171.42C14.1149 171.805 14.7565 172.189 15.3981 172.318C16.168 172.574 16.8095 172.574 17.5794 172.574C19.3759 172.574 20.9157 172.061 22.0705 171.164C23.2254 170.138 23.867 168.856 23.867 167.317C23.867 165.522 23.2254 164.24 21.9422 163.215C20.659 162.189 18.9909 161.804 16.6812 162.061C17.1945 161.42 17.7078 160.907 18.221 160.394C18.7343 159.881 19.3759 159.368 20.0175 158.984C20.659 158.599 21.3006 158.086 21.9422 157.83C22.5838 157.445 23.2254 157.189 23.7387 156.932C25.1501 157.573 26.4333 158.342 27.7165 159.24C28.9997 160.009 30.2828 160.907 31.566 161.804C30.7961 161.932 30.1545 162.317 29.5129 162.574C28.8713 162.958 28.2297 163.343 27.8448 163.856C27.3315 164.368 26.9466 164.881 26.6899 165.522C26.4333 166.163 26.305 166.805 26.305 167.446C26.305 168.343 26.4333 169.241 26.8183 169.882C27.2032 170.523 27.5882 171.164 28.2297 171.548C28.8713 171.933 29.5129 172.318 30.2828 172.574C31.0527 172.831 31.9509 172.959 32.8492 172.959C33.6191 172.959 34.5173 172.831 35.2872 172.574C36.0571 172.318 36.827 171.933 37.4686 171.42C38.1102 170.907 38.6234 170.266 39.0084 169.497C39.3933 168.728 39.65 167.83 39.65 166.676C39.7783 165.138 39.3933 164.112 38.7517 162.958ZM18.221 163.471C18.7343 163.727 19.1192 164.112 19.5042 164.497C19.8891 164.881 20.0175 165.394 20.1458 165.907C20.2741 166.42 20.4024 167.061 20.4024 167.574C20.4024 168.599 20.2741 169.497 19.8891 170.01C19.5042 170.651 18.9909 170.907 18.221 170.907C17.9644 170.907 17.5794 170.779 17.3228 170.651C17.0662 170.394 16.6812 170.138 16.4246 169.753C16.168 169.369 15.9113 168.984 15.783 168.343C15.6547 167.83 15.5264 167.189 15.5264 166.548C15.5264 165.907 15.6547 165.266 15.783 164.625C15.9113 163.984 16.168 163.471 16.5529 163.086C17.0662 163.086 17.7078 163.215 18.221 163.471ZM26.6899 153.727C25.5351 153.086 24.6369 152.188 23.7387 151.291C22.9688 150.393 22.4555 149.496 22.4555 148.598C22.4555 148.342 22.5838 147.957 22.7121 147.573C22.8404 147.188 23.0971 146.932 23.3537 146.675C23.6103 146.419 23.9953 146.162 24.5086 146.034C24.8935 145.906 25.5351 145.778 26.0484 145.778C26.9466 145.778 27.5882 146.162 28.2297 146.803C28.743 147.444 28.9997 148.214 28.9997 148.983C28.9997 150.265 28.8713 151.291 28.4864 151.932C28.2297 152.573 27.5882 153.214 26.6899 153.727ZM35.2872 168.6C35.1589 168.984 35.0305 169.369 34.9022 169.753C34.7739 170.138 34.5173 170.394 34.1323 170.651C33.8757 170.907 33.3624 171.036 32.9775 171.036C32.5925 171.036 32.2076 170.907 31.8226 170.651C31.4377 170.394 31.181 170.138 30.9244 169.625C30.6678 169.241 30.4111 168.728 30.2828 168.215C30.1545 167.702 30.0262 167.189 30.0262 166.676C30.0262 165.394 30.2828 164.368 30.7961 163.727C31.3094 163.086 31.9509 162.574 32.7208 162.189C33.3624 162.702 34.004 163.471 34.5173 164.368C35.0306 165.266 35.4155 166.163 35.4155 167.317C35.4155 167.83 35.4155 168.215 35.2872 168.6Z" fill="black" fill-opacity="0.1"/>
<path d="M262.28 159.753C262.28 163.215 261.767 165.907 260.612 167.83C259.457 169.882 257.917 170.779 255.992 170.779C254.838 170.779 254.068 170.394 253.554 169.753C253.041 169.112 252.784 167.958 252.784 166.292V158.342C252.784 156.419 252.271 154.753 251.116 153.599C249.961 152.445 248.55 151.804 246.754 151.804C243.802 151.804 241.236 153.342 239.311 156.291V142.572H235.462V173.472H239.311V159.625C241.364 156.548 243.674 155.009 245.984 155.009C247.01 155.009 247.78 155.394 248.293 156.035C248.807 156.676 248.935 157.83 248.935 159.368V166.42C248.935 168.215 249.063 169.497 249.32 170.266C249.577 171.036 249.961 171.805 250.731 172.446C251.758 173.472 253.169 173.984 254.838 173.984C258.174 173.984 260.868 172.574 262.922 169.625C264.975 166.676 266.001 162.83 266.001 157.958C266.001 155.778 265.744 153.855 265.36 152.188H261.125C261.767 154.24 262.28 156.676 262.28 159.753Z" fill="black" fill-opacity="0.1"/>
<path d="M184.52 354.379C182.852 351.687 180.414 349.379 177.334 347.584L186.06 334.378H162.064L170.533 347.584C167.325 349.507 165.016 351.815 163.219 354.379C161.551 357.072 160.653 359.893 160.653 363.098H164.759C164.759 360.277 165.401 357.841 166.684 355.662C167.967 353.482 169.763 351.687 171.945 350.533V363.226H175.794V350.533C177.976 351.815 179.772 353.482 181.055 355.662C182.338 357.841 182.98 360.405 182.98 363.098H186.958C186.958 359.893 186.188 357.072 184.52 354.379ZM173.998 347.2L168.608 337.712H179.515C178.489 339.379 176.692 342.584 173.998 347.2Z" fill="black" fill-opacity="0.1"/>
<path d="M258.687 20.0012H255.094L249.962 33.0788H241.749V20.0012H238.285V45.5155H241.749V36.0277H248.807L245.214 45.5155H248.807L252.271 36.0277H255.222V45.5155H258.559V36.0277H261.638L265.36 45.5155H269.209L258.687 20.0012ZM253.298 33.0788C255.351 27.6939 256.506 24.2322 256.891 22.6936C257.276 24.3604 258.559 27.8221 260.483 33.0788H253.298Z" fill="black" fill-opacity="0.1"/>
<path d="M112.021 216.807C110.481 213.089 108.428 210.012 105.861 207.704C103.039 205.14 100.087 203.73 97.1359 203.73C94.8262 203.73 92.5165 204.371 90.4634 205.781C88.667 206.935 86.9989 208.474 85.5874 210.269L87.2555 213.217C89.1803 210.653 91.105 208.73 93.1581 207.704V217.961H96.6227V206.679C100.216 206.807 103.68 209.628 107.016 215.141C102.525 215.782 100.216 218.731 100.216 223.731V233.09H103.808V223.859C103.808 221.936 104.193 220.654 104.835 219.885C105.605 218.987 106.888 218.474 108.684 218.474C109.839 222.064 110.481 225.269 110.481 227.962C110.481 234.501 107.658 237.834 101.884 237.834C100.344 237.834 98.6757 237.706 96.8793 237.578L98.5474 241.04C104.065 241.04 107.915 240.142 110.224 238.347C112.919 236.296 114.33 232.449 114.33 226.936C114.202 223.731 113.432 220.269 112.021 216.807Z" fill="black" fill-opacity="0.1"/>
<path d="M89.6936 82.1842V85.9024L99.0607 95.903L89.6936 106.929V110.904H110.096V107.442H93.7997L103.552 95.903L93.7997 85.5178H109.198V82.1842H89.6936Z" fill="black" fill-opacity="0.1"/>
<path d="M328.235 84.1074C328.235 92.8259 325.925 98.9801 321.434 102.314L316.173 84.1074H312.58L318.483 104.237C316.43 105.134 314.248 105.519 311.939 105.519L312.324 109.237C317.969 109.237 322.589 107.057 326.182 102.698C329.775 98.339 331.571 92.1848 331.571 84.1074H328.235Z" fill="black" fill-opacity="0.1"/>
<path d="M182.082 284.632C182.723 283.863 183.237 283.093 183.493 282.324C183.878 281.427 184.135 280.529 184.135 279.632L184.648 275.016H180.927L180.67 278.606C180.542 279.76 180.414 280.785 180.157 281.555C179.9 282.324 179.515 282.965 179.002 283.606C178.489 284.247 177.847 284.76 177.077 285.273C174.896 284.119 173.356 283.221 172.715 282.58C171.945 281.939 171.56 281.17 171.175 280.273C170.918 279.503 170.79 278.221 170.79 276.554V275.016H167.069V276.554C167.069 278.478 167.325 280.144 167.839 281.427C168.352 282.709 169.122 283.863 170.148 284.888C171.175 285.914 172.33 286.683 173.613 287.324L179.259 290.145C180.799 290.914 181.697 291.555 181.697 292.068C181.697 292.581 181.312 292.966 180.414 292.966H167.069V296.684H180.414C183.622 296.684 185.161 295.145 185.161 292.196C185.161 291.299 184.905 290.401 184.263 289.632C183.75 288.863 182.21 287.837 179.9 286.683C180.67 285.914 181.44 285.273 182.082 284.632Z" fill="black" fill-opacity="0.1"/>
<path d="M255.094 214.756C253.554 213.474 251.501 212.576 248.935 212.064L249.32 205.396H244.572C243.289 205.396 242.262 205.653 241.236 206.294C240.081 207.063 239.568 207.961 239.439 209.115C239.439 210.269 240.081 211.294 241.621 212.064C242.647 212.705 243.931 213.089 245.47 213.346L244.7 227.193C242.006 227.064 240.723 225.269 240.723 221.679H238.028C238.413 226.423 240.594 228.859 244.572 229.244L244.059 239.245H247.523L248.037 229.116C251.116 228.859 253.426 228.09 254.837 226.936C256.506 225.526 257.404 223.474 257.66 220.526C257.789 218.218 256.891 216.295 255.094 214.756ZM245.47 211.551C243.546 211.166 242.647 210.397 242.647 209.243C242.647 208.602 243.032 208.089 243.674 207.576C244.187 207.191 244.829 207.063 245.599 207.063H245.727L245.47 211.551ZM252.143 225.013C250.988 226.295 249.705 227.064 248.037 227.321L248.807 213.987C250.346 214.5 251.63 215.269 252.528 216.551C253.554 217.833 254.068 219.243 253.939 220.782C253.811 222.321 253.298 223.731 252.143 225.013Z" fill="black" fill-opacity="0.1"/>
<path d="M26.9466 17.1805L22.3272 14.3598L20.6591 17.4369L25.2785 20.1294L26.9466 17.1805Z" fill="black" fill-opacity="0.1"/>
<path d="M18.9909 20.7704L20.659 17.4369L16.1679 14.7444L14.4998 17.9498L18.9909 20.7704Z" fill="black" fill-opacity="0.1"/>
<path d="M17.0662 8.59024L15.3981 11.7956L20.0175 14.6162L21.8139 11.2827L17.0662 8.59024Z" fill="black" fill-opacity="0.1"/>
<path d="M32.3359 54.1057C30.9244 54.2339 29.7696 54.3621 28.743 54.4903C27.7165 54.6185 26.8183 54.6185 26.1767 54.6185C20.2741 54.6185 16.9379 53.2082 16.2963 50.5157C16.168 49.6182 16.0397 48.7208 16.0397 47.8233C16.0397 42.5666 19.2476 38.2073 25.6634 34.7456C27.5882 33.7199 28.8714 33.207 29.3846 33.207H29.5129L30.2828 28.976C29.2563 29.4889 28.3581 30.0017 27.8448 30.2582C27.2032 30.5146 26.8183 30.771 26.69 30.771C25.0219 31.5403 23.867 31.9249 22.8405 31.9249C22.4555 31.9249 22.0706 31.7967 21.5573 31.6685C21.044 31.5403 20.6591 31.2839 20.2741 31.0274C19.8892 30.771 19.5042 30.3864 19.2476 30.1299C18.991 29.7453 18.8626 29.3607 18.8626 28.976C18.8626 28.5914 18.991 28.2067 19.2476 27.9503C19.5042 27.5657 19.8892 27.3093 20.2741 27.0528C20.6591 26.7964 21.1723 26.54 21.6856 26.4118C22.1989 26.2836 22.7121 26.1553 23.2254 26.1553C24.5086 26.1553 25.6634 26.4118 26.5617 26.7964C26.5617 26.7964 26.69 26.7964 26.69 26.6682C26.69 26.2836 26.5617 25.7707 26.1767 25.2579C25.7918 24.745 25.4068 24.3604 25.0219 23.9757C24.5086 23.5911 23.9953 23.2065 23.482 22.95C22.9688 22.6936 22.4555 22.5654 22.0706 22.5654C20.6591 22.5654 19.2476 23.5911 17.9644 25.5143C16.8096 27.3093 16.168 28.976 16.168 30.5146C16.168 32.8224 17.3228 34.361 19.7609 35.1302C19.5042 35.2584 19.2476 35.5149 18.8626 35.8995C18.4777 36.2841 18.2211 36.6688 17.8361 37.3098C16.5529 39.3612 15.5264 41.4126 14.8848 43.3358C14.1149 45.259 13.8583 47.1822 13.8583 48.849C13.8583 50.2593 14.1149 51.5414 14.6282 52.8236C15.1414 53.9775 15.783 55.0032 16.6812 55.9007C17.5795 56.7981 18.606 57.4392 19.8892 57.9521C21.1723 58.4649 22.4555 58.7213 23.9953 58.7213C26.4333 58.7213 28.9997 58.2085 31.6943 57.311C34.9023 56.1571 36.9553 54.7467 37.8535 52.9518C37.4686 53.2082 35.6722 53.721 32.3359 54.1057Z" fill="black" fill-opacity="0.1"/>
<path d="M188.626 212.064V209.115H159.113V212.064H172.715V219.372C170.79 217.064 168.737 216.038 166.299 216.038C165.016 216.038 163.861 216.423 162.963 217.32C162.064 218.218 161.551 219.372 161.551 220.91C161.551 222.577 162.064 223.987 163.091 225.141C164.117 226.295 165.529 226.808 167.197 226.808C168.993 226.808 170.79 225.91 172.715 224.244V233.347L175.153 236.167H176.051V221.936C177.591 220.526 179.13 219.884 180.542 219.884C181.568 219.884 182.338 220.141 182.723 220.782C183.237 221.423 183.493 222.321 183.493 223.603C183.493 225.269 182.852 227.321 181.44 229.629L183.878 231.936C185.033 229.885 185.675 227.834 185.675 225.91C185.675 223.474 184.905 221.551 183.493 220.141C182.082 218.602 180.414 217.961 178.746 217.961C177.719 217.961 176.821 218.218 176.051 218.602V211.935H188.626V212.064ZM172.715 220.91C169.763 223.603 167.454 225.013 165.786 225.013C164.887 225.013 164.246 224.757 163.732 224.244C163.219 223.731 162.963 223.09 162.963 222.321C162.963 221.423 163.476 220.654 164.374 220.013C165.401 219.372 166.684 218.987 168.48 218.987C170.148 218.987 171.56 219.5 172.715 220.397V220.91Z" fill="black" fill-opacity="0.1"/>
<path d="M335.421 390.407C332.983 388.099 329.39 386.945 324.77 386.945C319.381 386.945 315.018 388.612 311.682 391.946C308.217 395.279 306.549 399.51 306.549 404.767C306.549 408.357 307.576 411.562 309.372 414.639C306.164 417.204 304.496 419.511 304.496 421.435C304.496 422.46 304.881 423.23 305.523 423.742C306.164 424.255 307.191 424.512 308.602 424.512C311.169 424.512 313.863 423.742 316.686 422.076C319.381 423.742 321.819 424.512 324.129 424.512C326.567 424.512 328.62 423.871 330.288 422.46C331.956 421.178 332.726 419.383 332.726 417.204C332.726 414.383 331.443 412.332 328.748 410.921C330.031 408.87 330.673 406.69 330.673 404.639C330.673 401.946 329.903 399.767 328.491 398.1C327.08 396.433 325.027 395.664 322.461 395.664C320.407 395.664 318.611 396.305 317.071 397.459C315.66 398.613 314.89 400.151 314.89 402.075C314.89 403.485 315.403 404.767 316.301 405.664C317.2 406.562 318.483 407.075 320.023 407.075C321.306 407.075 322.332 406.69 323.23 405.793C324.129 404.895 324.514 403.87 324.514 402.716C324.514 401.433 324.129 400.408 323.23 399.639C322.461 398.869 321.306 398.356 320.151 398.356C319.253 398.356 318.354 398.613 317.456 398.997C318.611 397.844 320.023 397.331 321.434 397.331C323.102 397.331 324.514 397.844 325.54 398.997C326.567 400.151 327.08 401.562 327.08 403.357C327.08 405.408 326.567 407.459 325.54 409.767C325.027 409.639 324.257 409.511 323.23 409.511C321.177 409.511 319.124 409.895 316.815 410.665C314.505 411.434 312.452 412.46 310.655 413.742C308.859 411.306 308.089 408.357 308.089 405.023C308.089 400.792 309.629 397.331 312.708 394.51C315.788 391.689 319.509 390.279 323.872 390.279C327.85 390.279 331.058 391.433 333.624 393.613C336.062 395.792 337.345 398.869 337.345 402.587C337.345 403.741 337.089 406.947 336.575 412.203L335.292 424.64H336.704L338.115 410.28C338.628 405.152 338.885 401.818 338.885 400.536C339.142 395.92 337.859 392.715 335.421 390.407ZM319.253 399.767C319.766 399.767 320.279 400.023 320.664 400.408C321.049 400.792 321.306 401.305 321.306 401.818C321.306 402.331 321.049 402.844 320.664 403.357C320.279 403.741 319.766 403.998 319.253 403.998C318.611 403.998 318.098 403.741 317.713 403.357C317.328 402.972 317.071 402.459 317.071 401.818C317.071 401.177 317.328 400.664 317.713 400.28C318.098 399.895 318.611 399.767 319.253 399.767ZM327.465 413.229C328.62 413.87 329.261 414.896 329.261 416.563C329.261 417.973 328.62 419.127 327.337 420.024C326.053 421.05 324.642 421.563 323.23 421.563C321.434 421.563 320.151 421.306 319.253 420.665C322.076 418.87 324.77 416.306 327.465 413.229ZM322.332 411.306C323.102 411.306 323.872 411.434 324.642 411.69C322.717 414.896 320.279 417.46 317.2 419.511C316.301 418.999 315.275 418.358 314.248 417.46C313.222 416.563 312.324 415.665 311.81 414.896C315.146 412.588 318.739 411.306 322.332 411.306ZM315.147 420.922C312.837 422.332 310.655 422.973 308.859 422.973C307.961 422.973 307.319 422.845 306.806 422.589C306.293 422.332 306.164 421.947 306.164 421.435C306.164 420.665 306.549 419.768 307.448 418.742C308.217 417.716 309.244 416.819 310.399 416.05C312.067 418.101 313.735 419.768 315.147 420.922Z" fill="black" fill-opacity="0.1"/>
<path d="M117.667 151.804C116.768 150.137 115.742 149.368 114.459 149.368C113.945 149.368 113.432 149.496 113.176 149.752C112.919 150.009 112.791 150.393 112.791 150.906C112.791 151.675 113.432 152.445 114.715 153.342C116.512 154.624 117.538 156.291 117.538 158.471C117.538 160.779 116.897 162.702 115.614 164.112C114.33 165.522 112.919 166.292 111.379 166.292C110.224 166.292 109.454 166.035 108.941 165.651C108.428 165.138 108.171 164.368 108.171 163.215C108.171 162.702 108.3 161.676 108.428 160.266C108.556 158.727 108.684 157.573 108.684 156.676C108.684 155.394 108.3 154.368 107.658 153.599C107.016 152.958 106.118 152.573 105.092 152.573C103.552 152.573 102.269 152.958 101.242 153.855C100.087 154.753 99.189 156.035 98.4191 157.83C97.7776 156.035 96.8793 154.753 95.5962 153.855C94.313 152.958 92.7732 152.573 90.9768 152.573C87.8972 152.573 85.3308 153.599 83.5344 155.65C81.7379 157.701 80.8397 160.137 80.8397 162.958C80.8397 165.01 81.353 166.548 82.3795 167.83C83.4061 168.984 84.8175 169.625 86.4857 169.625C88.0255 169.625 89.1803 169.112 90.2069 168.215C91.2334 167.189 91.6183 165.907 91.6183 164.368C91.6183 162.83 91.1051 161.676 90.0785 160.65C89.052 159.625 87.8972 159.112 86.3574 159.112C85.0742 159.112 83.791 159.625 82.3795 160.779C83.0211 158.855 83.9193 157.189 85.3308 156.035C86.7423 154.881 88.1538 154.24 89.8219 154.24C91.6183 154.24 93.1582 154.753 94.1847 155.906C95.3395 157.06 95.8528 158.599 95.8528 160.65C95.8528 161.035 95.8528 161.291 95.8528 161.548L95.2112 169.112H98.6758L99.3174 160.779C99.4457 159.112 99.9589 157.83 100.729 156.804C101.499 155.778 102.397 155.394 103.424 155.394C104.065 155.394 104.45 155.65 104.835 156.035C105.092 156.419 105.348 157.06 105.348 157.958C105.348 158.471 105.22 159.496 105.092 160.907C104.963 162.317 104.835 163.471 104.835 164.368C104.835 166.035 105.348 167.317 106.375 168.215C107.401 169.112 108.684 169.625 110.353 169.625C112.662 169.625 114.715 168.599 116.512 166.42C118.308 164.24 119.078 161.676 119.078 158.599C119.078 155.65 118.565 153.47 117.667 151.804ZM83.2777 161.676C83.791 161.163 84.4326 160.907 85.2025 160.907C85.9724 160.907 86.614 161.163 87.1273 161.676C87.6405 162.189 87.8972 162.83 87.8972 163.599C87.8972 164.368 87.6405 165.01 87.1273 165.522C86.614 166.035 85.9724 166.292 85.2025 166.292C84.4326 166.292 83.791 166.035 83.2777 165.522C82.7645 165.01 82.5078 164.368 82.5078 163.599C82.5078 162.83 82.7645 162.189 83.2777 161.676Z" fill="black" fill-opacity="0.1"/>
<path d="M335.421 280.657C334.522 278.99 333.496 278.221 332.213 278.221C331.699 278.221 331.186 278.349 330.93 278.606C330.673 278.862 330.545 279.247 330.545 279.76C330.545 280.529 331.186 281.298 332.469 282.196C334.266 283.478 335.292 285.145 335.292 287.324C335.292 289.632 334.651 291.555 333.368 292.966C332.084 294.376 330.673 295.145 329.133 295.145C327.978 295.145 327.208 294.889 326.695 294.504C326.182 293.991 325.925 293.222 325.925 292.068C325.925 291.555 326.053 290.53 326.182 289.119C326.31 287.581 326.438 286.427 326.438 285.529C326.438 284.247 326.053 283.222 325.412 282.452C324.77 281.811 323.872 281.427 322.846 281.427C321.306 281.427 320.023 281.811 318.996 282.709C317.841 283.606 316.943 284.888 316.173 286.683C315.531 284.888 314.633 283.606 313.35 282.709C312.067 281.811 310.527 281.427 308.731 281.427C305.651 281.427 303.085 282.452 301.288 284.504C299.492 286.555 298.594 288.991 298.594 291.812C298.594 293.863 299.107 295.402 300.133 296.684C301.16 297.838 302.571 298.479 304.24 298.479C305.779 298.479 306.934 297.966 307.961 297.068C308.987 296.043 309.372 294.761 309.372 293.222C309.372 291.684 308.859 290.53 307.832 289.504C306.806 288.478 305.651 287.965 304.111 287.965C302.828 287.965 301.545 288.478 300.133 289.632C300.775 287.709 301.673 286.042 303.085 284.888C304.496 283.734 305.908 283.093 307.576 283.093C309.372 283.093 310.912 283.606 311.939 284.76C313.093 285.914 313.607 287.453 313.607 289.504C313.607 289.889 313.607 290.145 313.607 290.401L312.965 297.966H316.43L317.071 289.632C317.2 287.965 317.713 286.683 318.483 285.658C319.253 284.632 320.151 284.247 321.177 284.247C321.819 284.247 322.204 284.504 322.589 284.888C322.846 285.273 323.102 285.914 323.102 286.811C323.102 287.324 322.974 288.35 322.846 289.76C322.717 291.171 322.589 292.325 322.589 293.222C322.589 294.889 323.102 296.171 324.129 297.068C325.155 297.966 326.438 298.479 328.107 298.479C330.416 298.479 332.469 297.453 334.266 295.273C336.062 293.094 336.832 290.53 336.832 287.453C336.832 284.504 336.319 282.324 335.421 280.657ZM301.032 290.53C301.545 290.017 302.187 289.76 302.956 289.76C303.726 289.76 304.368 290.017 304.881 290.53C305.394 291.042 305.651 291.684 305.651 292.453C305.651 293.222 305.394 293.863 304.881 294.376C304.368 294.889 303.726 295.145 302.956 295.145C302.187 295.145 301.545 294.889 301.032 294.376C300.518 293.863 300.262 293.222 300.262 292.453C300.262 291.684 300.518 291.042 301.032 290.53Z" fill="black" fill-opacity="0.1"/>
<path d="M257.019 342.456C256.377 344.251 255.351 345.917 253.811 347.328C252.271 348.738 251.116 349.507 250.09 349.507C249.833 349.507 249.705 349.379 249.577 349.123C249.448 348.866 249.448 348.482 249.448 347.969V344.251C250.988 344.251 252.271 343.866 253.426 342.969C254.581 342.199 255.094 341.174 255.094 340.02C255.094 338.866 254.709 337.968 253.939 337.327C253.169 336.686 252.143 336.301 250.988 336.301C249.705 336.301 248.678 336.814 248.037 337.712C247.395 338.609 247.01 340.02 247.01 341.815C244.829 341.174 243.032 339.507 241.493 336.814L240.594 337.199C241.108 338.609 242.006 340.02 243.161 341.302C244.316 342.584 245.599 343.481 246.882 343.994V348.61C246.882 349.507 247.267 350.277 247.908 350.918C248.55 351.559 249.32 351.815 249.961 351.815C250.86 351.815 251.886 351.559 253.041 350.918C254.196 350.405 255.222 349.636 256.121 348.738C257.019 347.841 257.404 347.456 257.404 347.456C257.66 347.456 257.66 347.969 257.66 348.866C257.66 350.79 256.891 352.584 255.479 354.379C254.068 356.174 252.143 357.072 249.577 357.072C246.754 357.072 244.187 355.405 241.877 352.072C239.568 348.738 237.9 343.866 237.13 337.327H236.36C236.873 343.353 238.413 348.738 240.979 353.354C243.546 358.098 246.625 360.405 250.475 360.405C253.041 360.405 255.094 359.38 256.762 357.328C258.43 355.277 259.2 352.584 259.2 349.379C259.329 346.943 258.559 344.635 257.019 342.456ZM249.577 340.404C249.577 339.507 249.705 338.738 250.09 338.225C250.475 337.712 250.988 337.455 251.501 337.455C252.528 337.455 253.169 337.968 253.169 338.866C253.169 339.635 252.784 340.276 252.143 340.789C251.373 341.43 250.603 341.686 249.833 341.686H249.577V340.404Z" fill="black" fill-opacity="0.1"/>
<path d="M329.646 336.173V354.892C328.748 353.226 327.978 351.943 327.337 350.79C326.695 349.636 326.053 348.866 325.54 348.225V338.225L323.872 332.968H323.102V341.686C321.306 339.507 319.894 337.968 318.868 337.199C317.841 336.43 317.071 335.917 316.301 335.532C316.943 336.814 317.2 337.968 317.2 338.994C317.2 340.661 316.815 341.943 315.916 342.84C315.018 343.738 313.992 344.251 312.837 344.251C312.324 344.251 311.81 344.122 311.425 343.994C311.04 343.738 310.912 343.61 310.912 343.353C310.912 342.969 311.169 342.712 311.682 342.584C312.58 342.327 313.222 342.071 313.478 341.558C313.863 341.045 313.992 340.532 313.992 340.148C313.992 339.25 313.735 338.481 313.222 337.84C312.709 337.199 311.939 336.943 311.04 336.943C310.014 336.943 309.116 337.199 308.474 337.968C307.832 338.609 307.448 339.507 307.448 340.533C307.448 341.815 307.961 342.969 308.987 343.866C310.014 344.892 311.297 345.276 312.837 345.276C314.505 345.276 315.916 344.764 317.328 343.738C318.739 342.712 319.509 341.302 319.638 339.763C320.408 340.276 320.921 340.661 321.306 341.174C321.691 341.558 321.819 342.071 321.819 342.456C321.819 342.969 321.306 343.738 320.408 344.892C319.381 345.917 317.841 346.943 315.788 347.712C313.735 348.482 311.169 348.866 308.089 348.995L309.372 352.969C310.912 352.841 312.58 353.097 314.12 353.482C315.66 353.867 317.328 354.508 318.868 355.405C317.969 356.559 316.815 357.457 315.403 358.098C313.992 358.739 312.195 359.123 310.27 359.252L311.169 362.072C311.682 362.072 312.067 362.072 312.324 362.072C313.607 362.072 315.018 362.329 316.301 362.713C317.585 363.098 318.739 363.739 320.023 364.508L320.664 363.867C319.894 363.098 318.996 362.457 317.97 361.816C316.943 361.303 315.916 360.918 314.762 360.662C315.66 360.405 316.43 359.893 317.328 359.123C318.226 358.354 318.996 357.328 319.894 356.046C320.921 356.687 321.819 357.457 322.589 358.226C323.359 358.995 324 359.893 324.514 360.79H325.412V351.559C326.567 352.456 327.593 353.61 328.491 355.149C329.518 356.687 330.416 358.61 331.186 360.79H331.956V338.609H335.934V336.43H329.646V336.173ZM323.102 357.328C321.819 355.79 320.408 354.636 318.996 353.61C317.585 352.584 316.045 351.815 314.505 351.302C316.686 350.533 318.483 349.636 319.894 348.353C321.306 347.071 322.461 345.533 323.102 343.738V357.328Z" fill="black" fill-opacity="0.1"/>
<path d="M252.399 275.913C252.528 275.529 252.656 275.272 252.913 275.144C253.169 274.888 253.298 274.759 253.554 274.631C253.811 274.503 254.068 274.503 254.324 274.503C254.581 274.503 254.838 274.503 255.094 274.631C255.351 274.759 255.479 274.888 255.607 275.016C255.736 275.144 255.864 275.272 255.864 275.401C255.864 275.529 255.992 275.657 255.992 275.913C255.992 276.042 255.992 276.298 255.864 276.554C255.736 276.811 255.607 277.067 255.351 277.324L257.404 278.862C257.66 278.606 257.789 278.349 257.917 278.221C258.045 277.965 258.174 277.837 258.302 277.58C258.43 277.324 258.559 277.067 258.559 276.811C258.687 276.554 258.687 276.17 258.687 275.785C258.687 275.272 258.559 274.759 258.302 274.247C258.045 273.734 257.789 273.349 257.276 272.964C256.891 272.58 256.377 272.323 255.864 272.067C255.351 271.811 254.838 271.811 254.196 271.811C253.554 271.811 252.913 271.939 252.271 272.195C251.63 272.452 251.116 272.708 250.731 273.221C250.346 273.606 249.961 274.247 249.705 274.888C249.448 275.529 249.32 276.298 249.32 277.196C249.32 277.965 249.448 278.606 249.577 279.375C249.705 280.016 249.961 280.785 250.346 281.427C250.603 282.068 250.988 282.709 251.245 283.35C251.63 283.991 251.886 284.632 252.143 285.273C252.399 285.914 252.656 286.683 252.913 287.324C253.041 287.965 253.169 288.735 253.169 289.504C253.169 290.145 253.041 290.914 252.913 291.684C252.656 292.453 252.399 293.222 251.886 293.863C251.373 294.504 250.731 295.017 249.961 295.53C249.192 295.915 248.165 296.171 246.882 296.171C246.369 296.171 245.727 296.043 245.214 295.915C244.572 295.786 244.059 295.53 243.546 295.145C243.032 294.761 242.647 294.376 242.262 293.735C241.878 293.222 241.749 292.581 241.749 291.812C241.749 291.299 241.878 290.914 242.006 290.53C242.134 290.145 242.391 289.76 242.647 289.504C242.904 289.247 243.289 288.991 243.674 288.863C244.059 288.735 244.444 288.606 244.7 288.606H246.754V285.658H244.187C243.802 285.658 243.289 285.658 242.904 285.529C242.519 285.401 242.006 285.273 241.621 285.145C241.236 284.888 240.979 284.632 240.723 284.247C240.466 283.863 240.338 283.478 240.338 282.837C240.338 282.324 240.466 281.811 240.851 281.427C241.236 281.042 241.621 280.785 242.006 280.529C242.519 280.273 243.032 280.144 243.546 279.888C244.059 279.76 244.572 279.632 244.957 279.632L244.572 276.939C243.546 277.067 242.519 277.324 241.749 277.58C240.851 277.965 240.209 278.349 239.568 278.734C238.926 279.247 238.541 279.76 238.156 280.401C237.771 281.042 237.643 281.683 237.643 282.324C237.643 282.965 237.771 283.606 237.9 284.119C238.028 284.632 238.285 285.145 238.67 285.529C238.926 285.914 239.311 286.299 239.696 286.555C240.081 286.811 240.594 287.068 240.979 287.196C240.209 287.837 239.696 288.606 239.44 289.248C239.183 289.889 239.055 290.658 239.055 291.427C239.055 292.581 239.311 293.607 239.824 294.504C240.338 295.402 240.979 296.171 241.749 296.684C242.519 297.325 243.417 297.71 244.316 297.966C245.214 298.222 246.24 298.351 247.139 298.351C248.55 298.351 249.833 298.094 250.988 297.71C252.143 297.197 253.041 296.556 253.811 295.786C254.581 294.889 255.222 293.991 255.607 292.837C255.992 291.684 256.249 290.53 256.249 289.119C256.249 288.35 256.121 287.581 255.992 286.811C255.864 286.042 255.607 285.401 255.222 284.632C254.966 283.991 254.581 283.221 254.324 282.58C253.939 281.939 253.683 281.298 253.426 280.529C253.169 279.888 252.913 279.247 252.656 278.606C252.528 277.965 252.399 277.324 252.399 276.683C252.271 276.683 252.271 276.298 252.399 275.913Z" fill="black" fill-opacity="0.1"/>
<path d="M34.7739 414.383C35.0306 414.255 35.4155 414.126 35.8005 413.998C36.1854 413.998 36.5704 413.87 36.9553 413.87L39.265 411.947C38.8801 411.69 38.4951 411.306 38.1102 410.921C37.7252 410.665 37.3403 410.28 36.9553 409.895C36.5704 409.511 36.1854 408.998 35.6721 408.613C36.3137 408.229 36.827 407.844 37.3403 407.459C37.7252 407.075 38.1102 406.69 38.3668 406.434C38.6234 406.049 38.8801 405.664 39.0084 405.28C39.1367 404.895 39.1367 404.382 39.1367 403.869C39.1367 403.357 39.0084 402.844 38.8801 402.331C38.6234 401.818 38.3668 401.433 37.9819 401.049C37.5969 400.664 37.0836 400.408 36.5704 400.151C36.0571 399.895 35.4155 399.895 34.7739 399.895C34.2607 399.895 33.6191 400.023 33.1058 400.151C32.5925 400.408 32.0793 400.664 31.566 401.049C31.1811 401.433 30.7961 401.946 30.5395 402.459C30.2828 402.972 30.1545 403.613 30.1545 404.382C30.1545 405.023 30.2828 405.536 30.5395 406.177C30.7961 406.818 31.1811 407.331 31.566 407.844L27.5882 410.024V398.869H24.8935V407.844C24.3803 407.331 23.7387 406.69 23.2254 406.306C22.5838 405.793 22.0706 405.408 21.429 405.023C20.7874 404.639 20.1458 404.382 19.5042 404.126C18.8626 403.869 18.221 403.741 17.4511 403.741C16.8096 403.741 16.2963 403.869 15.783 403.998C15.2698 404.126 14.7565 404.382 14.3715 404.639C13.9866 404.895 13.6016 405.28 13.2167 405.664C12.8317 406.049 12.7034 406.562 12.4468 406.947L14.6282 408.229C14.7565 407.972 14.8848 407.844 15.0131 407.588C15.1414 407.331 15.3981 407.203 15.6547 406.947C15.9113 406.818 16.168 406.562 16.5529 406.434C16.9379 406.306 17.3228 406.306 17.7078 406.306C18.4777 406.306 19.2476 406.434 19.8892 406.69C20.5307 406.947 21.1723 407.331 21.8139 407.716C22.4555 408.1 22.9688 408.613 23.482 409.126C23.9953 409.639 24.5086 410.152 25.0218 410.665V411.434L15.2698 416.947L16.6812 419.255C17.4511 418.742 18.3494 418.357 19.2476 417.845C20.0175 417.46 20.9157 416.947 21.9422 416.306C22.9688 415.793 23.9953 415.152 25.1502 414.511V420.794C25.1502 421.306 25.1502 421.691 25.2785 422.076C25.4068 422.46 25.5351 422.845 25.7917 423.23C26.0484 423.614 26.305 423.871 26.69 423.999C27.0749 424.255 27.4599 424.255 27.9731 424.255C28.3581 424.255 28.743 424.255 28.9997 423.999C29.2563 423.871 29.6413 423.742 29.7696 423.486C30.0262 423.23 30.1545 423.101 30.4112 422.845C30.5395 422.588 30.6678 422.332 30.7961 422.076L29.3846 420.922C29.2563 421.05 29.128 421.306 28.9997 421.435C28.8714 421.563 28.743 421.563 28.4864 421.563C28.2298 421.563 27.9731 421.435 27.9731 421.306C27.8448 421.178 27.8448 420.922 27.8448 420.665V412.844L33.6191 409.511C34.004 409.895 34.389 410.28 34.7739 410.537C35.1589 410.793 35.4155 411.049 35.6721 411.178C35.2872 411.306 34.7739 411.434 34.2607 411.562C33.7474 411.819 33.2341 412.075 32.8492 412.46C32.3359 412.844 31.951 413.229 31.6943 413.87C31.4377 414.383 31.1811 415.024 31.1811 415.793C31.1811 416.434 31.3094 417.075 31.566 417.588C31.8226 418.101 32.0793 418.614 32.4642 418.999C32.8492 419.383 33.3624 419.768 33.8757 419.896C34.389 420.152 34.9023 420.281 35.5438 420.281C35.6722 420.281 35.9288 420.281 36.1854 420.281C36.4421 420.281 36.6987 420.152 36.9553 420.152C37.212 420.152 37.5969 420.024 37.8535 419.896C38.1102 419.768 38.3668 419.64 38.6234 419.511L39.5217 416.434C38.6234 416.947 37.8535 417.204 37.3403 417.332C36.827 417.46 36.3137 417.46 36.0571 417.46C35.8005 417.46 35.4155 417.46 35.1589 417.332C34.9023 417.204 34.6456 417.075 34.5173 416.947C34.2607 416.819 34.1323 416.563 34.004 416.306C33.8757 416.05 33.8757 415.921 33.8757 415.665C33.8757 415.152 34.004 414.896 34.1324 414.511C34.1324 414.768 34.5173 414.511 34.7739 414.383ZM34.2607 406.434L34.1324 406.562C33.8757 406.177 33.6191 405.793 33.3624 405.408C33.2341 405.023 33.1058 404.767 33.1058 404.382C33.1058 403.741 33.2341 403.228 33.6191 402.844C34.004 402.459 34.5173 402.203 35.2872 402.203C35.6722 402.203 36.0571 402.331 36.4421 402.587C36.827 402.844 36.9553 403.1 36.9553 403.613C36.9553 403.741 36.9553 403.998 36.9553 404.126C36.9553 404.382 36.827 404.511 36.5704 404.767C36.4421 405.023 36.0571 405.28 35.8005 405.536C35.4155 405.664 34.9023 406.049 34.2607 406.434Z" fill="black" fill-opacity="0.1"/>
<path d="M333.496 218.218C333.367 217.705 333.111 217.064 332.726 216.551C332.341 216.038 331.956 215.525 331.314 215.141C330.801 214.756 330.031 214.371 329.39 214.243V206.294H326.695V214.243C325.668 214.371 324.899 214.756 324.129 215.397C323.359 215.91 322.717 216.551 322.076 217.192C321.049 216.038 320.023 215.269 319.124 214.756C318.226 214.371 317.2 214.115 316.173 214.115C315.403 214.115 314.762 214.243 313.992 214.5C313.222 214.756 312.58 215.141 311.939 215.782C311.297 216.295 310.784 217.064 310.527 217.833C310.142 218.602 310.014 219.5 310.014 220.654C310.014 221.423 310.142 222.192 310.399 222.962C310.655 223.731 311.04 224.5 311.554 225.141C312.067 225.91 312.58 226.552 313.093 227.193C313.735 227.834 314.248 228.475 314.89 228.988C315.531 229.5 316.173 230.013 316.686 230.526C317.328 231.039 317.841 231.424 318.226 231.68L319.766 229.757C319.509 229.5 318.996 229.244 318.611 228.859C318.098 228.475 317.584 228.09 317.071 227.705C316.558 227.321 316.045 226.808 315.531 226.295C315.018 225.782 314.505 225.269 314.12 224.628C313.735 223.987 313.35 223.346 313.093 222.705C312.837 222.064 312.708 221.295 312.708 220.654C312.708 220.269 312.837 219.884 312.965 219.372C313.093 218.987 313.35 218.474 313.607 218.218C313.863 217.833 314.248 217.577 314.762 217.32C315.275 217.064 315.788 216.936 316.43 216.936C317.071 216.936 317.713 217.064 318.483 217.448C319.124 217.705 320.023 218.346 320.921 219.243C320.664 219.5 320.536 219.884 320.407 220.141C320.279 220.397 320.151 220.654 320.022 220.782L322.332 222.192C322.589 221.679 322.845 221.167 323.23 220.526C323.615 219.884 324 219.372 324.514 218.859C325.027 218.346 325.54 217.961 326.053 217.577C326.695 217.192 327.337 217.064 327.978 217.064C328.363 217.064 328.748 217.064 329.133 217.192C329.518 217.32 329.903 217.448 330.16 217.705C330.416 217.961 330.673 218.218 330.929 218.602C331.186 218.987 331.186 219.372 331.186 219.884C331.186 220.654 330.929 221.295 330.545 221.808C330.16 222.321 329.646 222.705 329.005 223.09C328.363 223.474 327.722 223.731 326.952 224.116C326.182 224.372 325.54 224.757 324.899 225.141C324.257 225.526 323.744 226.039 323.359 226.552C322.974 227.064 322.717 227.834 322.717 228.731C322.717 229.116 322.845 229.5 322.974 229.757C323.102 230.141 323.23 230.398 323.487 230.654C323.744 230.911 324 231.167 324.257 231.424C324.514 231.68 324.77 231.808 325.155 231.936C324.642 232.193 324.385 232.706 324.129 233.219C323.872 233.731 323.744 234.244 323.744 234.885C323.744 235.398 323.872 236.039 324.129 236.552C324.385 237.065 324.642 237.578 325.027 237.962C325.412 238.347 325.925 238.732 326.438 238.86C326.952 239.116 327.593 239.245 328.235 239.245C328.748 239.245 329.133 239.116 329.646 238.988C330.031 238.86 330.416 238.732 330.801 238.475C331.058 238.219 331.443 238.091 331.571 237.834C331.828 237.578 331.956 237.45 332.084 237.193L330.929 235.398C330.673 235.655 330.416 235.911 329.903 236.167C329.39 236.296 329.005 236.424 328.491 236.424C328.363 236.424 328.106 236.424 327.85 236.424C327.593 236.424 327.337 236.296 327.08 236.167C326.823 236.039 326.567 235.911 326.438 235.655C326.31 235.398 326.182 235.142 326.182 234.757C326.182 234.629 326.182 234.501 326.31 234.244C326.31 234.116 326.438 233.86 326.567 233.731C326.695 233.603 326.823 233.475 327.08 233.347C327.337 233.219 327.593 233.219 327.978 233.219H329.775L329.518 230.654H328.235C327.465 230.654 326.823 230.526 326.438 230.013C325.925 229.629 325.797 229.116 325.797 228.603C325.797 228.09 326.053 227.705 326.438 227.321C326.823 226.936 327.337 226.68 327.978 226.295C328.62 226.039 329.261 225.654 330.031 225.398C330.801 225.013 331.443 224.628 332.084 224.244C332.726 223.731 333.239 223.218 333.624 222.449C334.009 221.808 334.266 220.91 334.266 219.884C333.752 219.372 333.752 218.859 333.496 218.218Z" fill="black" fill-opacity="0.1"/>
<path d="M184.648 400.664V419.255C182.852 417.332 180.927 416.05 179.002 415.28V407.844C179.002 406.177 178.489 404.767 177.334 403.485C176.179 402.203 174.768 401.177 172.971 400.408L169.635 403.357L166.299 400.536C162.064 402.203 159.883 404.895 159.883 408.87C159.883 410.024 160.268 411.947 160.909 414.383C161.551 416.819 161.936 418.614 161.936 419.768V422.973H165.272C165.272 422.589 165.401 422.076 165.786 421.435C166.17 420.922 166.94 419.896 168.352 418.614C170.277 416.691 171.431 415.28 171.945 414.255C172.458 413.229 172.715 412.203 172.715 411.306V411.178C172.715 410.28 172.33 409.383 171.688 408.742C171.047 408.1 170.148 407.716 169.25 407.716C168.352 407.716 167.454 408.1 166.812 408.742C166.17 409.383 165.786 410.28 165.786 411.178C165.786 411.947 166.042 412.588 166.427 413.229C166.94 413.87 167.454 414.255 168.224 414.511C167.967 415.024 167.454 415.665 166.812 416.563L165.016 418.999C165.016 418.101 164.631 416.434 163.989 413.742C163.347 411.306 163.091 409.639 163.091 408.87C163.091 406.306 164.117 404.639 166.299 403.613L169.635 406.434L172.971 403.613C174.896 404.767 175.794 406.177 175.794 407.972V415.024C174.383 415.28 173.228 415.793 172.33 416.563C171.431 417.332 171.047 418.358 171.047 419.383C171.047 420.537 171.303 421.435 171.945 422.076C172.586 422.717 173.356 423.101 174.383 423.101C177.334 423.101 178.874 421.306 178.874 417.588C180.799 418.486 182.723 420.281 184.648 422.973H187.728V400.792H184.648V400.664ZM167.967 411.049C167.967 410.793 168.095 410.408 168.352 410.152C168.608 409.895 168.865 409.767 169.25 409.767C169.507 409.767 169.892 409.895 170.02 410.152C170.277 410.408 170.405 410.665 170.405 411.049C170.405 411.434 170.277 411.69 170.02 411.947C169.763 412.203 169.507 412.332 169.25 412.332C168.865 412.332 168.608 412.203 168.352 411.947C168.095 411.69 167.967 411.434 167.967 411.049ZM175.794 418.999C175.794 419.511 175.666 420.024 175.409 420.281C175.153 420.537 174.896 420.794 174.511 420.794C174.254 420.794 173.998 420.665 173.741 420.409C173.485 420.152 173.356 419.768 173.356 419.383C173.356 418.87 173.613 418.358 173.998 417.973C174.383 417.588 175.024 417.332 175.794 417.204V418.999Z" fill="black" fill-opacity="0.1"/>
<path d="M253.041 80.5175C252.271 81.6714 250.988 83.0817 248.807 84.6203C245.085 87.4409 241.236 89.3641 235.847 91.0309C236.745 92.0566 237.001 92.4412 237.386 93.5951C240.338 92.5694 243.802 91.0309 246.24 89.6205C249.063 87.9538 251.373 86.287 254.196 83.4663C254.709 82.9535 254.966 82.8253 255.607 82.3124L253.041 80.5175Z" fill="black" fill-opacity="0.1"/>
<path d="M252.656 95.7747C252.784 95.6465 252.785 95.6465 252.913 95.5183C254.966 94.108 258.815 90.7745 260.612 88.8513C261.125 88.2102 261.253 88.2102 261.895 87.6974L259.329 85.7742C257.532 88.7231 250.988 94.108 245.342 97.0569C241.493 99.1083 238.67 100.134 233.794 101.544C234.692 102.442 234.948 102.826 235.333 104.109C240.209 102.442 241.749 101.929 244.572 100.39C246.369 99.4929 247.78 98.7236 249.705 97.5697V108.468C249.705 110.647 249.705 111.417 249.448 112.442H252.784C252.656 111.417 252.656 110.519 252.656 108.34V95.7747Z" fill="black" fill-opacity="0.1"/>
<path d="M178.232 26.1553C177.334 24.4886 176.821 23.7193 175.666 22.309L173.613 23.2064C174.768 24.6168 175.409 25.6425 176.308 27.3092L178.232 26.1553Z" fill="black" fill-opacity="0.1"/>
<path d="M171.303 28.5914C170.277 26.6682 169.763 26.0271 168.224 24.1039L166.171 25.0014C167.582 26.6682 168.224 27.6939 169.25 29.7453L171.303 28.5914Z" fill="black" fill-opacity="0.1"/>
<path d="M183.365 16.4112C182.338 17.0523 180.927 17.8215 178.617 18.4626C173.998 20.0011 168.609 20.8986 162.449 21.4115C163.219 22.309 163.476 22.8218 163.733 23.7193C167.325 23.3347 170.02 22.8218 173.356 22.1808C177.591 21.1551 179.9 20.514 183.878 18.9754C185.033 18.4626 185.033 18.4626 185.418 18.3344L183.365 16.4112Z" fill="black" fill-opacity="0.1"/>
<path d="M184.776 22.4372C184.007 23.4629 182.467 24.6168 180.285 25.8989C174.896 29.2325 168.865 31.2839 161.679 32.1813C162.449 33.0788 162.706 33.4635 163.091 34.4892C168.224 33.4635 171.945 32.3096 176.564 30.3864C177.591 31.4121 177.847 31.7967 178.489 32.8224C174.254 35.6431 168.224 37.8227 161.551 38.8484C162.321 39.6177 162.578 40.1305 163.091 41.1562C170.148 39.4895 175.281 37.5663 179.644 34.6174C180.285 35.7713 180.542 36.5406 180.799 37.4381C180.927 37.6945 180.927 37.6945 180.927 37.8227C178.617 39.6177 177.206 40.3869 174.511 41.6691C170.148 43.7205 166.427 44.8744 161.294 45.7719C162.064 46.6694 162.449 47.054 162.834 48.0797C167.325 47.054 170.533 45.9001 174.383 44.2333C177.334 42.823 179.259 41.6691 181.44 40.1305C181.697 41.9255 181.825 42.6948 181.825 44.2333C181.825 47.8233 181.055 48.7208 178.232 48.7208C176.821 48.7208 175.538 48.5925 173.869 48.2079C174.254 49.2336 174.383 49.6182 174.511 50.7722C176.051 50.9004 176.949 50.9004 178.104 50.9004C180.542 50.9004 181.825 50.6439 182.723 49.7465C183.878 48.7208 184.391 46.7976 184.391 43.7205C184.391 38.2073 182.467 33.207 178.874 29.3607C181.697 27.9503 183.75 26.6682 186.958 24.2322L184.776 22.4372Z" fill="black" fill-opacity="0.1"/>
<path d="M37.8535 208.602C36.5703 209.371 35.4154 209.884 33.3624 210.397C28.1014 211.935 20.0174 212.961 13.9865 212.961C12.96 212.961 12.3184 212.961 10.6503 212.833C11.1635 213.73 11.4202 214.243 11.6768 215.397C15.7829 215.269 17.4511 215.141 19.3758 215.012C23.6103 214.628 28.2297 213.859 31.6943 213.089C35.0305 212.32 36.9552 211.679 40.0349 210.525L37.8535 208.602Z" fill="black" fill-opacity="0.1"/>
<path d="M36.442 203.345C32.7208 205.396 23.482 206.935 15.2697 206.935C14.1148 206.935 13.2166 206.935 11.4202 206.807C12.3184 208.345 12.4467 208.474 12.575 209.371C23.3536 209.115 32.7208 207.576 38.7517 205.14L36.442 203.345Z" fill="black" fill-opacity="0.1"/>
<path d="M26.6899 226.552H35.0305C36.5703 226.552 37.5968 226.552 38.6234 226.808V224.116C37.5968 224.244 36.9553 224.244 35.0305 224.244H26.6899V219.628C32.8491 218.602 38.7517 217.064 42.0879 215.397L39.6499 213.602C38.4951 214.371 36.057 215.269 32.8491 216.166C26.8182 217.705 17.3228 218.859 10.6503 218.859H9.23879C9.75206 219.5 10.137 220.526 10.2653 221.295C14.6281 221.038 18.8626 220.654 24.1236 219.885V232.706C20.7873 231.552 18.4776 229.372 16.8095 225.782C17.1944 224.628 17.3228 223.987 17.7077 222.449L15.1414 221.936C14.8847 226.423 12.1901 231.552 8.34058 235.27C9.36711 235.911 9.75206 236.167 10.522 237.065C12.8317 234.501 14.3715 232.065 15.9113 228.347C18.3493 232.834 21.5572 234.885 27.0749 235.655C29.3846 236.039 32.7208 236.167 36.3137 236.167C38.1101 236.167 39.3933 236.168 42.3446 236.039C42.4729 235.014 42.6012 234.629 43.1145 233.347C39.1366 233.731 37.0836 233.731 34.3889 233.731C31.181 233.731 28.8713 233.603 26.5616 233.219L26.6899 226.552Z" fill="black" fill-opacity="0.1"/>
<path d="M114.202 426.563H109.583L105.99 417.204H93.1581L89.8219 426.563H85.5874L97.3926 395.92H101.755L114.202 426.563ZM104.835 413.998C102.269 407.331 100.857 403.613 100.601 402.716C100.216 401.818 99.9589 400.664 99.574 399.126H99.4456C99.0607 401.177 98.5474 403.1 97.9058 404.895L94.4413 414.126H104.835V413.998Z" fill="black" fill-opacity="0.1"/>
<path d="M333.239 166.548H326.823L325.027 175.395H321.819L323.615 166.548H317.071L315.275 175.395H312.067L313.863 166.548H310.27V163.471H314.377L315.916 155.906H310.142V152.829H316.43L318.226 143.854H321.306L319.509 152.829H326.053L327.85 143.854H330.929L329.133 152.829H332.726V155.906H328.491L326.952 163.471H332.726V166.548H333.239ZM325.797 155.906H319.253L317.713 163.471H324.257L325.797 155.906Z" fill="black" fill-opacity="0.1"/>
<path d="M163.604 145.008H167.582V162.958C167.582 165.779 168.095 167.83 169.122 169.241C170.148 170.523 171.816 171.164 174.126 171.164C176.436 171.164 177.976 170.523 178.874 169.369C179.772 168.087 180.285 166.035 180.285 163.215V145.137H183.878V163.086C183.878 166.933 183.108 169.753 181.44 171.548C179.9 173.343 177.334 174.241 173.87 174.241C170.277 174.241 167.71 173.343 166.042 171.548C164.374 169.753 163.476 166.933 163.476 163.086L163.604 145.008Z" fill="black" fill-opacity="0.1"/>
<path d="M107.401 42.5665C109.711 39.8741 110.866 36.5406 110.866 32.8224H107.401V34.1045C107.401 36.9252 106.888 39.1048 105.862 40.5151C103.552 37.8227 101.499 35.002 99.8306 32.0531C103.552 30.1299 105.477 27.9503 105.477 25.3861C105.477 23.8475 104.963 22.6936 103.808 21.6679C102.782 20.6422 101.37 20.2576 99.7023 20.2576C98.0342 20.2576 96.4944 20.7704 95.3395 21.7961C94.1847 22.8218 93.5431 24.1039 93.5431 25.6425C93.5431 27.0528 94.0564 28.7196 95.3395 30.8992C91.1051 32.3095 89.052 35.002 89.052 38.9766C89.052 41.4126 89.9502 43.3358 91.6183 44.8744C93.4148 46.4129 95.5962 47.1822 98.2908 47.1822C100.857 47.1822 103.039 46.4129 104.963 45.0026L106.246 46.5411H111.123C109.711 45.1308 108.556 43.8487 107.401 42.5665ZM99.574 22.6936C101.37 22.6936 102.269 23.5911 102.269 25.3861C102.269 27.181 100.985 28.7196 98.5475 29.8735C97.3926 28.0785 96.8793 26.54 96.8793 25.3861C96.8793 23.5911 97.7776 22.6936 99.574 22.6936ZM98.8041 44.4897C97.0077 44.4897 95.4679 43.8487 94.313 42.5665C93.0298 41.2844 92.5166 39.7459 92.5166 37.9509C92.5166 35.5149 93.7997 33.8481 96.4944 32.8224C98.6758 36.5406 100.985 40.0023 103.424 42.9512C101.884 43.9769 100.344 44.4897 98.8041 44.4897Z" fill="black" fill-opacity="0.1"/>
<path d="M24.3802 83.5946C24.8934 83.5946 25.92 83.5946 25.92 83.9792C25.92 84.2356 25.6633 84.4921 25.1501 84.7485C25.0218 87.1845 25.0218 89.3642 24.8934 91.4156C27.3315 99.8776 32.3358 104.621 37.4685 107.314C36.6986 108.211 35.6721 109.494 34.9022 110.519C29.8978 107.057 25.7917 102.698 23.7386 98.2108C21.6855 105.006 16.6811 108.852 12.575 110.776C12.0617 110.006 11.2918 109.109 10.0087 107.57C18.8625 103.98 21.4289 98.0826 21.4289 86.6717C21.4289 85.7742 21.4289 84.6203 21.4289 83.4664L24.3802 83.5946Z" fill="black" fill-opacity="0.1"/>
<path d="M312.837 46.9258V28.7196C312.837 26.54 313.093 24.8732 313.607 23.5911C314.12 22.309 315.018 21.4115 316.43 20.7704C317.713 20.1294 319.124 19.7447 320.664 19.7447C322.717 19.7447 324.385 20.2576 325.54 21.2833C326.823 22.309 327.465 23.5911 327.465 25.0014C327.465 26.1553 327.08 27.3093 326.438 28.4632C326.31 28.7196 325.925 29.3607 325.412 30.2581C324.899 31.1556 324.642 31.9249 324.642 32.4378C324.642 32.9506 324.899 33.4635 325.284 33.8481C325.668 34.2327 326.567 34.8738 327.978 35.7713C329.518 36.797 330.545 37.6945 331.058 38.4638C331.571 39.233 331.828 40.1305 331.828 41.1562C331.828 42.823 331.186 44.2333 329.903 45.5154C328.62 46.6694 327.08 47.3104 325.155 47.3104C322.204 47.3104 319.894 45.9001 318.483 42.9512L321.306 41.5409C322.332 43.5923 323.615 44.618 325.027 44.618C325.925 44.618 326.695 44.3615 327.337 43.7205C327.978 43.0794 328.363 42.3101 328.363 41.5409C328.363 40.8998 328.235 40.2587 327.85 39.8741C327.465 39.4895 326.952 38.9766 326.053 38.3355C324.257 37.0534 322.974 36.0277 322.332 35.2584C321.691 34.4892 321.306 33.7199 321.306 32.8224C321.306 32.3096 321.434 31.6685 321.562 31.2838C321.819 30.771 322.076 30.1299 322.589 29.2324C323.359 27.9503 323.744 27.0528 324 26.54C324.129 26.0271 324.257 25.6425 324.257 25.2579C324.257 24.4886 323.872 23.7193 323.23 23.2065C322.589 22.6936 321.691 22.4372 320.664 22.4372C319.253 22.4372 318.226 22.8218 317.456 23.8475C316.686 24.745 316.301 26.4118 316.301 28.976V47.054H312.837V46.9258Z" fill="black" fill-opacity="0.1"/>
<path d="M188.241 103.724C187.471 103.468 186.573 103.083 185.29 102.57C184.007 102.057 182.723 101.544 181.312 101.16C179.9 100.647 178.361 100.262 176.949 99.7494C175.409 99.3647 174.126 98.9801 172.843 98.7237C172.843 98.4672 172.843 98.2108 172.843 97.8262C172.843 97.4415 172.715 97.0569 172.715 96.6723C172.715 96.2876 172.586 95.903 172.586 95.5184C172.586 95.1337 172.458 94.8773 172.458 94.6209C173.228 93.9798 174.126 93.467 175.281 92.6977C176.308 92.0566 177.334 91.2873 178.361 90.6463C179.387 89.877 180.285 89.2359 181.184 88.5949C182.082 87.9538 182.723 87.3128 183.365 86.6717C183.622 86.2871 183.622 85.9024 183.365 85.5178C183.108 85.1331 182.852 85.0049 182.467 85.0049C181.697 85.2614 180.927 85.5178 180.157 86.0306C179.259 86.5435 178.489 87.1845 177.591 87.8256C176.692 88.4667 175.794 89.1077 174.896 89.7488C173.998 90.3899 173.1 91.0309 172.201 91.5438C171.945 90.6463 171.816 89.7488 171.816 88.8513C171.816 87.8256 171.688 86.9281 171.688 86.0306C171.688 85.5178 171.56 85.0049 171.431 84.3639C171.303 83.7228 171.175 83.21 170.918 82.8253C170.662 82.4407 170.533 82.3125 170.148 82.5689C169.892 82.6971 169.507 83.3382 169.25 84.4921C168.993 85.9024 168.993 87.3128 168.993 88.7231C168.993 90.1334 169.122 91.5438 169.378 92.6977C168.609 93.0823 167.71 93.467 166.812 93.7234C165.914 94.108 165.144 94.3644 164.374 94.7491C163.604 95.0055 162.834 95.2619 162.193 95.5184C161.551 95.7748 161.038 95.903 160.525 95.903C159.883 96.2876 159.498 96.6723 159.241 97.0569C159.113 97.4415 159.113 97.8262 159.241 98.2108C159.37 98.4672 159.626 98.8519 160.011 98.9801C160.396 99.2365 160.781 99.3647 161.166 99.4929C161.808 99.6212 162.449 99.7494 163.219 99.7494C163.989 99.8776 164.759 100.006 165.657 100.134C166.427 100.262 167.325 100.39 168.095 100.519C168.865 100.647 169.507 100.775 170.148 101.031C170.277 101.801 170.277 102.57 170.277 103.211C170.277 103.852 170.277 104.493 170.277 105.006C170.277 105.647 170.405 106.288 170.405 107.186C170.405 107.955 170.533 108.981 170.662 110.263C170.79 110.391 170.918 110.647 171.175 110.776C171.431 110.904 171.688 111.032 171.945 111.032C172.201 111.032 172.458 111.032 172.715 110.904C172.971 110.776 173.1 110.647 173.1 110.263C173.356 110.135 173.485 109.75 173.485 109.109C173.485 108.34 173.356 107.57 173.228 106.673C173.1 105.775 172.971 104.878 172.843 103.98C172.715 103.083 172.715 102.442 172.715 101.929C173.356 101.929 174.254 102.185 175.409 102.442C176.564 102.698 177.847 103.083 179.259 103.468C180.67 103.852 181.953 104.237 183.365 104.621C184.776 105.006 185.931 105.263 186.958 105.519C187.214 105.519 187.343 105.391 187.471 105.263C187.599 105.134 187.728 104.878 187.856 104.75C187.984 104.621 187.984 104.365 187.984 104.237C188.369 103.852 188.369 103.724 188.241 103.724ZM168.095 97.9544C167.454 97.8262 166.812 97.698 166.17 97.698C166.17 97.5698 166.17 97.4415 166.427 97.1851C166.684 97.0569 166.94 96.8005 167.325 96.6723C167.71 96.5441 168.095 96.2876 168.48 96.1594C168.865 96.0312 169.25 95.7748 169.635 95.6466L170.02 98.339C169.378 98.2108 168.737 98.0826 168.095 97.9544Z" fill="black" fill-opacity="0.1"/>
<path d="M38.3667 293.735C37.5968 293.479 36.6986 293.094 35.4155 292.581C34.1323 292.068 32.8491 291.555 31.4376 291.171C30.0261 290.658 28.4863 290.273 27.0749 289.76C25.535 289.376 24.2519 288.991 22.9687 288.735C22.9687 288.478 22.9687 288.222 22.9687 287.837C22.9687 287.453 22.8404 287.068 22.8404 286.683C22.8404 286.299 22.7121 285.914 22.7121 285.529C22.7121 285.145 22.5838 284.888 22.5838 284.632C23.3537 283.991 24.2519 283.478 25.4067 282.709C26.4333 282.068 27.4598 281.298 28.4863 280.657C29.5129 279.888 30.4111 279.247 31.3093 278.606C32.2075 277.965 32.8491 277.324 33.4907 276.683C33.7473 276.298 33.7473 275.913 33.4907 275.529C33.2341 275.144 32.9774 275.016 32.5925 275.016C31.8226 275.272 31.0527 275.529 30.2828 276.042C29.3846 276.554 28.6147 277.195 27.7164 277.837C26.8182 278.478 25.92 279.119 25.0218 279.76C24.1236 280.401 23.2253 281.042 22.3271 281.555C22.0705 280.657 21.9422 279.76 21.9422 278.862C21.9422 277.837 21.8139 276.939 21.8139 276.042C21.8139 275.529 21.6855 275.016 21.5572 274.375C21.4289 273.734 21.3006 273.221 21.044 272.836C20.7873 272.452 20.659 272.323 20.2741 272.58C20.0174 272.708 19.6325 273.349 19.3758 274.503C19.1192 275.913 19.1192 277.324 19.1192 278.734C19.1192 280.144 19.2475 281.555 19.5042 282.709C18.7342 283.093 17.836 283.478 16.9378 283.734C16.0396 284.119 15.2697 284.375 14.4998 284.76C13.7299 285.016 12.96 285.273 12.3184 285.529C11.6768 285.786 11.1635 285.914 10.6503 285.914C10.0087 286.299 9.62375 286.683 9.36711 287.068C9.23879 287.453 9.23879 287.837 9.36711 288.222C9.49543 288.478 9.75206 288.863 10.137 288.991C10.522 289.247 10.9069 289.376 11.2919 289.504C11.9335 289.632 12.575 289.76 13.3449 289.76C14.1148 289.889 14.8847 290.017 15.783 290.145C16.5529 290.273 17.4511 290.401 18.221 290.53C18.9909 290.658 19.6325 290.786 20.2741 291.042C20.4024 291.812 20.4024 292.581 20.4024 293.222C20.4024 293.863 20.4024 294.504 20.4024 295.017C20.4024 295.658 20.5307 296.299 20.5307 297.197C20.5307 297.966 20.659 298.992 20.7873 300.274C20.9156 300.402 21.044 300.658 21.3006 300.787C21.5572 300.915 21.8139 301.043 22.0705 301.043C22.3271 301.043 22.5838 301.043 22.8404 300.915C23.097 300.787 23.2253 300.658 23.2253 300.274C23.482 300.146 23.6103 299.761 23.6103 299.12C23.6103 298.351 23.482 297.581 23.3537 296.684C23.2253 295.786 23.097 294.889 22.9687 293.991C22.8404 293.094 22.8404 292.453 22.8404 291.94C23.482 291.94 24.3802 292.196 25.535 292.453C26.6899 292.709 27.9731 293.094 29.3846 293.479C30.796 293.863 32.0792 294.248 33.4907 294.632C34.9022 295.017 36.057 295.273 37.0836 295.53C37.3402 295.53 37.4685 295.402 37.5968 295.273C37.7252 295.145 37.8535 294.889 37.9818 294.761C38.1101 294.632 38.1101 294.376 38.1101 294.248C38.4951 293.863 38.4951 293.735 38.3667 293.735ZM18.221 287.965C17.5794 287.837 16.9378 287.709 16.2962 287.709C16.2962 287.581 16.2962 287.453 16.5529 287.196C16.8095 287.068 17.0661 286.811 17.4511 286.683C17.836 286.555 18.221 286.299 18.6059 286.17C18.9909 286.042 19.3758 285.786 19.7608 285.658L20.1457 288.35C19.5042 288.222 18.8626 288.094 18.221 287.965Z" fill="black" fill-opacity="0.1"/>
<path d="M104.578 341.943L108.3 344.122L109.839 341.686L106.118 339.25L104.578 341.943Z" fill="black" fill-opacity="0.1"/>
<path d="M109.839 341.686L113.689 344.122L115.357 341.302L111.507 338.994L109.839 341.686Z" fill="black" fill-opacity="0.1"/>
<path d="M109.069 336.045L105.22 333.609L103.68 336.301L107.401 338.481L109.069 336.045Z" fill="black" fill-opacity="0.1"/>
<path d="M114.459 335.66L110.609 333.353L109.069 336.045L112.919 338.481L114.459 335.66Z" fill="black" fill-opacity="0.1"/>
<path d="M115.229 354.251C115.1 353.226 114.972 352.2 114.715 351.174C113.946 348.225 112.919 346.687 111.507 346.687C110.353 346.687 109.198 347.584 107.915 349.507C106.76 351.302 106.118 352.713 106.118 353.995C106.118 355.149 106.76 356.174 108.043 356.944L111.507 358.482C111.379 358.739 109.326 358.867 105.605 358.995C102.654 359.123 100.472 359.252 98.9324 359.252C92.5166 359.252 88.7954 358.739 87.5122 357.841C86.4857 356.944 85.9724 355.918 85.9724 354.636C85.9724 354.379 86.1007 353.226 86.3574 351.174C85.5875 352.456 85.0742 353.226 84.9459 353.482C84.5609 354.251 84.4326 355.149 84.4326 356.174C84.4326 357.585 84.9459 359.123 85.8441 360.534C86.8706 362.072 90.8485 362.97 97.7776 362.97C100.729 362.97 103.552 362.841 106.375 362.713C109.069 362.585 111.764 362.329 114.33 362.072C115.1 361.944 115.485 360.405 115.485 357.328C115.357 356.303 115.357 355.277 115.229 354.251ZM113.689 356.174L107.786 352.969C107.786 352.713 107.915 352.456 108.171 352.2C108.428 351.943 108.685 351.559 108.941 351.302C109.198 351.046 109.454 350.79 109.711 350.533C109.968 350.277 110.224 350.277 110.353 350.277C110.994 350.277 111.764 351.046 112.534 352.584C113.304 353.995 113.689 355.149 113.689 355.918C113.817 356.046 113.817 356.174 113.689 356.174Z" fill="black" fill-opacity="0.1"/>
<path d="M244.444 395.792L243.674 398.997C240.851 399.895 239.44 402.459 239.44 406.434C239.44 408.613 239.953 410.408 241.108 412.203C242.263 413.87 243.931 414.896 246.112 415.409V401.818C246.112 400.408 246.24 399.254 246.369 398.485C246.625 397.715 247.01 397.074 247.78 396.561C248.55 396.049 249.577 395.792 250.731 395.792C252.656 395.792 254.324 396.177 255.479 396.946C256.762 397.715 257.789 398.997 258.559 400.792C259.457 402.459 259.842 404.382 259.842 406.306C259.842 407.972 259.457 409.639 258.815 411.306C258.174 412.973 257.019 414.511 255.479 415.921C253.939 417.332 252.015 418.229 249.448 418.742V426.691H245.727V418.742C243.161 418.742 240.723 417.588 238.541 415.409C236.36 413.101 235.205 410.28 235.205 406.69C235.205 403.485 236.103 400.792 237.9 398.741C240.081 396.69 242.134 395.792 244.444 395.792ZM249.833 415.28C251.63 415.024 253.041 413.998 254.324 412.332C255.607 410.665 256.249 408.485 256.249 405.921C256.249 403.485 255.736 401.69 254.838 400.536C253.939 399.382 252.913 398.869 251.886 398.869C251.116 398.869 250.603 399.126 250.346 399.638C249.962 400.151 249.833 401.305 249.833 402.972V415.28Z" fill="black" fill-opacity="0.1"/>
</svg>
