<svg width="155" height="42" fill="none" xmlns="http://www.w3.org/2000/svg"><g clip-path="url(#a)" fill="#002539"><path d="M0 42S3.162 16.866 25.32 0c0 0-1.47 22.277 7.544 29.502-5.436 6.867-9.263 12.031-9.263 12.031s-6.406-5-9.124-16.729C10.567 30.6 0 42 0 42ZM48.117.66c7.183 0 11.148 7.608 8.015 16.26-2.635 7.253-2.857 13.955 2.745 16.674 5.602 2.72 9.873-2.719 9.873-2.719s-2.468 8.982-12.73 8.982c-10.15 0-23.378-11.097-19.33-28.76C38.689 3.49 43.375.66 48.118.66ZM75.85 24.887h-3.91v-9.67h3.91c.36 0 .749.028 1.165.11.388.083.776.22 1.081.413.333.192.61.467.804.769.222.33.305.741.305 1.263 0 .55-.166 1.017-.471 1.374a2.556 2.556 0 0 1-.86.66c.167.054.305.109.444.164.25.137.472.302.666.494.194.193.332.44.443.687.111.275.167.55.167.88 0 .521-.111.988-.333 1.345-.222.357-.5.66-.86.88-.36.219-.748.384-1.192.466-.444.11-.888.165-1.36.165Zm-1.442-2.088h1.165c.166 0 .36-.027.526-.055.167-.027.333-.082.5-.165a.878.878 0 0 0 .332-.302.942.942 0 0 0 .14-.494c0-.33-.112-.577-.39-.714-.276-.138-.665-.22-1.136-.22H74.38v1.95h.028Zm0-3.818h1.109c.388 0 .721-.082.915-.247.194-.138.305-.357.305-.66a.693.693 0 0 0-.305-.604c-.222-.137-.582-.192-1.026-.192h-.998v1.703ZM85.723 25.134c-.749 0-1.47-.137-2.108-.357a5.292 5.292 0 0 1-1.692-1.044c-.471-.44-.832-.989-1.109-1.62-.277-.632-.388-1.319-.388-2.088 0-.77.138-1.483.388-2.088a4.716 4.716 0 0 1 1.11-1.593c.47-.44 1.025-.77 1.691-1.016.638-.247 1.359-.357 2.108-.357.749 0 1.47.11 2.108.357.637.247 1.22.577 1.691 1.016.472.44.832.961 1.11 1.593.277.632.388 1.319.388 2.088 0 .769-.139 1.456-.388 2.088-.278.631-.638 1.18-1.11 1.62a5.294 5.294 0 0 1-1.692 1.044c-.637.247-1.358.357-2.107.357Zm0-7.856c-.388 0-.749.082-1.054.22-.305.137-.582.33-.832.577-.222.247-.416.521-.527.879-.139.33-.194.714-.194 1.098 0 .412.055.797.194 1.127.139.33.305.631.527.879.222.247.5.44.804.576.638.275 1.47.275 2.108 0 .305-.137.582-.33.832-.576.222-.248.416-.55.527-.88.138-.33.194-.714.194-1.126 0-.384-.056-.769-.194-1.098a3.096 3.096 0 0 0-.527-.88c-.222-.247-.5-.439-.832-.576-.277-.165-.638-.22-1.026-.22ZM100.421 24.887h-2.967l-2.052-3.736h-.583v3.736h-2.496v-9.67h3.744c.472 0 .915.056 1.36.138.443.083.859.247 1.22.495.36.22.637.549.86.934.221.384.332.851.332 1.428 0 .66-.194 1.236-.555 1.676-.333.412-.776.714-1.359.933l2.496 4.066Zm-5.657-5.631h.97c.195 0 .36-.028.555-.055a1.333 1.333 0 0 0 .86-.467.97.97 0 0 0 .138-.522c0-.192-.027-.357-.11-.467a.956.956 0 0 0-.306-.275 1.917 1.917 0 0 0-.471-.137c-.166-.027-.36-.027-.527-.027h-1.11v1.95ZM104.886 24.887h-3.66v-9.67h3.577c.666 0 1.359.083 2.025.248.665.165 1.275.412 1.802.797.527.357.943.879 1.276 1.483.333.632.471 1.4.471 2.28 0 .851-.166 1.566-.471 2.197a4.475 4.475 0 0 1-1.248 1.511 5.793 5.793 0 0 1-1.747.88 7.781 7.781 0 0 1-2.025.274Zm-1.192-2.225h.97c.389 0 .777-.055 1.165-.137.361-.083.694-.248.971-.44s.499-.467.666-.797c.166-.33.249-.769.249-1.263 0-.522-.083-.934-.249-1.264a2.115 2.115 0 0 0-.666-.796 2.651 2.651 0 0 0-.943-.412 5.113 5.113 0 0 0-1.109-.138h-1.026v5.247h-.028ZM118.475 24.887h-6.877v-9.67h6.656v2.17h-4.188v1.54h3.938v2.06h-3.938v1.702h4.409v2.198ZM129.07 24.887h-2.829l-.749-1.84h-3.522l-.693 1.84h-2.774l4.105-9.67h2.385l.028.083 4.049 9.587Zm-6.323-3.928h2.024l-.998-2.747-1.026 2.747ZM133.396 25.134c-.638 0-1.221-.11-1.747-.275a3.986 3.986 0 0 1-1.332-.796 3.755 3.755 0 0 1-.832-1.236c-.194-.467-.277-1.017-.277-1.594v-6.015h2.524v5.796c0 .247.027.467.083.687.055.22.166.412.277.576.139.165.305.302.499.385.222.11.472.137.777.137.305 0 .555-.055.777-.137.221-.11.388-.22.526-.385.139-.165.222-.357.278-.576a2.93 2.93 0 0 0 .083-.687v-5.796h2.551v5.988c0 .577-.111 1.126-.305 1.593a3.321 3.321 0 0 1-.859 1.236c-.361.33-.832.605-1.332.797-.471.22-1.053.302-1.691.302ZM148.15 24.887h-3.134l-2.024-3.214-1.914 3.214h-3.051l3.412-5.11-3.162-4.56h3.078l1.72 2.803 1.664-2.802h2.995l-3.106 4.56 3.522 5.109ZM83.06 38.676h-2.496l.056-6.208-2.302 6.208h-1.803l-2.218-6.18.055 6.18H71.94v-9.669h3.467l2.108 5.851 2.024-5.85h3.522v9.668ZM89.606 38.923c-.75 0-1.47-.11-2.108-.357a5.292 5.292 0 0 1-1.692-1.043c-.471-.44-.832-.99-1.11-1.621-.276-.632-.387-1.319-.387-2.088 0-.769.138-1.483.388-2.087a4.715 4.715 0 0 1 1.11-1.593c.47-.44 1.025-.77 1.69-1.017.639-.247 1.36-.357 2.109-.357.748 0 1.47.11 2.107.357.638.247 1.22.577 1.692 1.017.471.439.86.96 1.11 1.593.277.631.388 1.318.388 2.087 0 .77-.139 1.456-.389 2.088-.277.632-.638 1.181-1.109 1.62a5.005 5.005 0 0 1-1.692 1.044c-.637.248-1.33.357-2.107.357Zm0-7.883c-.389 0-.75.082-1.054.22-.305.137-.583.33-.832.576-.222.248-.416.522-.527.88-.111.33-.194.714-.194 1.098 0 .412.055.797.194 1.127.139.33.305.631.527.878.222.248.499.44.804.577.638.275 1.47.275 2.108 0 .305-.137.582-.33.832-.577.222-.247.416-.549.527-.879a3.01 3.01 0 0 0 .194-1.126c0-.384-.056-.769-.194-1.099a3.1 3.1 0 0 0-.527-.879c-.222-.247-.5-.439-.832-.576a2.351 2.351 0 0 0-1.026-.22ZM105.081 38.676h-2.774l-3.688-5.906.055 5.906h-2.468v-9.669h2.801l3.661 5.906-.056-5.906h2.469v9.67ZM111.126 38.676h-2.551v-7.471h-2.69v-2.198h7.931v2.198h-2.69v7.471ZM123.107 38.676h-2.829l-.749-1.84h-3.522l-.693 1.84h-2.773l4.104-9.669h2.385l.028.083 4.049 9.586Zm-6.323-3.928h2.024l-.998-2.747-1.026 2.747ZM126.157 29.007h-2.551v9.67h2.551v-9.67ZM132.786 38.923c-.777 0-1.498-.11-2.136-.357a5.004 5.004 0 0 1-1.691-1.043c-.472-.44-.832-.99-1.11-1.594-.277-.604-.388-1.318-.388-2.087 0-.77.139-1.484.416-2.088.277-.632.638-1.154 1.137-1.593.471-.44 1.054-.77 1.692-1.016.638-.248 1.331-.357 2.08-.357.776 0 1.47.11 2.135.357.666.22 1.193.549 1.609.933l.083.083-1.636 1.84-.084-.11a2.683 2.683 0 0 0-.832-.604 2.8 2.8 0 0 0-1.192-.247c-.388 0-.749.082-1.054.22-.333.137-.61.33-.86.576-.249.248-.416.55-.554.88-.139.33-.195.714-.195 1.126 0 .412.056.796.195 1.154.111.356.305.659.527.906.221.247.526.44.859.577.333.137.749.22 1.193.22.249 0 .499-.028.749-.055.194-.028.388-.083.554-.165v-1.511h-1.802V32.88h4.16v5.192l-.056.027c-.471.248-1.026.44-1.664.605-.721.137-1.414.22-2.135.22ZM147.096 38.676h-2.801l-3.661-5.906.056 5.906h-2.496v-9.669h2.829l3.66 5.906-.055-5.906h2.468v9.67ZM155.693 38.676h-6.878v-9.669h6.629v2.17h-4.16v1.538h3.938v2.06h-3.938v1.704h4.409v2.197ZM80.342 11.345c-.638 0-1.22-.11-1.747-.275a3.98 3.98 0 0 1-1.331-.797 3.75 3.75 0 0 1-.832-1.236 4.186 4.186 0 0 1-.305-1.593V1.456h2.524v5.796c0 .247.027.467.083.687.055.22.166.412.277.576.139.165.305.303.5.385.221.11.47.137.776.137.305 0 .555-.055.776-.137.222-.11.389-.22.5-.385a1.4 1.4 0 0 0 .277-.576 2.91 2.91 0 0 0 .083-.687V1.456h2.552v5.988c0 .577-.111 1.126-.305 1.593-.195.495-.5.907-.86 1.236-.36.33-.832.605-1.331.797-.444.192-1.026.275-1.637.275ZM90.576 11.098h-2.551V3.625h-2.69V1.428h7.931v2.198h-2.69v7.472ZM74.734 1.427l-2.551.003.012 9.67 2.552-.004-.013-9.67Z"/></g><defs><clipPath id="a"><path fill="#fff" d="M0 0h155v42H0z"/></clipPath></defs></svg>
