<svg version="1.1" id="Calque_1" xmlns="http://www.w3.org/2000/svg" x="0" y="0" viewBox="0 0 644.9 396.9" xml:space="preserve"><style>.st0{fill:#eb5e9d}.st3{fill:#e94e1b}.st9{fill:#951b81}.st10{fill:#936037}.st11{fill:#a3195b}.st13{fill:#95c11f}.st14{fill:#3aaa35}.st15{fill:#e30613}.st18{fill:#2d4c9c}.st19{fill:#0095db}.st24{fill:#002539}</style><path class="st0" d="M96.6 243.3c.4.7.9 1.3 1.6 1.6.7.4 1.4.4 2.1.2.7-.2 1.4-.8 2-1.8.2.7.4 1.2.8 1.5.4.3.8.5 1.2.5.5 0 1-.1 1.5-.3.5-.2 1-.4 1.5-.7.5-.3.9-.6 1.3-1 .4-.3.7-.7 1-.9.5.5.9 1.1 1 1.9.2.8.2 1.7.1 2.6-.1 1-.3 1.9-.5 2.9-.3 1-.6 1.9-1 2.8-.4.9-.8 1.6-1.2 2.3-.4.7-.8 1.1-1.2 1.4-.3.2-.4.4-.4.7 0 .3.1.5.3.7.2.2.4.3.7.4.3.1.6 0 .8-.3.5-.2 1-.8 1.5-1.7.5-.9 1-2 1.5-3.2.5-1.2.8-2.6 1.2-4 .3-1.4.5-2.8.5-4.1 0-1.3-.2-2.5-.6-3.5-.4-1-1.1-1.7-2-2-.2-.1-.4 0-.8.3s-.8.6-1.3 1l-1.5 1.2c-.5.4-1 .6-1.4.7-.4.1-.7 0-1-.3-.2-.3-.3-.9-.3-1.9-.1-.2-.2-.4-.4-.5-.1-.2-.3-.3-.5-.4-.2-.1-.3-.1-.5 0s-.3.2-.4.5c-.4.6-.8 1.1-1.2 1.6-.5.5-.9.8-1.3 1-.4.2-.7.2-1-.1-.2-.2-.3-.7-.2-1.5 0-.4-.2-.8-.5-1.1-.3-.3-.6-.5-1-.5-.3-.1-.6 0-.8.2-.2.2-.2.6 0 1.2-.1 1 0 1.9.4 2.6"/><path d="M49.8 290.9c-1.1.1-2.2.1-3.1.1 0-.3-.1-.6-.1-.9v-.8c0-.4-.1-.7-.3-.8-.2-.1-.4-.1-.7 0-.3.1-.5.3-.8.5-.2.2-.4.4-.5.6-.1.2-.1.5-.1.8 0 .3 0 .6-.1.8-.2.1-.5.1-.8.2-.4 0-.8.1-1.3.1s-.9 0-1.4.1c-.5 0-.9 0-1.2.1h-.1c-.4.1-.8.2-.9.4-.2.2-.3.4-.2.7 0 .3.2.5.4.7.2.2.5.4.8.4.9.1 1.8.1 2.5 0 .8 0 1.6-.1 2.5-.1v2.7c-.7.1-1.4.2-2.2.2-.8 0-1.6.1-2.3.3-.3.1-.5.2-.6.4-.2.2-.2.4-.3.6 0 .2 0 .4.2.6.1.2.4.3.7.3.7 0 1.5 0 2.2-.1.8-.1 1.5-.1 2.2-.1v4c-1-.1-2-.1-2.9-.1-.9 0-1.9.1-2.9.3l-.3.3c-.1.1-.2.2-.2.4 0 .1 0 .3.1.4.1.1.3.3.6.4.6.2 1 .2 1.2.3.2 0 .5.1.7.1H44c.1.6.2 1.2.2 1.9v3.7c0 .6.1 1.2.2 1.7.1.4.2.6.4.7.2.1.4.1.5.1l.6-.3c.2-.1.4-.3.5-.4V305h3.2c1 0 2.2 0 3.5-.1.3 0 .6-.1.7-.3.1-.2.2-.4.1-.6 0-.2-.1-.4-.3-.6-.1-.2-.3-.3-.5-.4-1.1-.1-2.2-.1-3.5-.1-1.3 0-2.5 0-3.5-.1v-4h1.1c.6 0 1.3 0 2-.1.7 0 1.4-.1 2.1-.1.6 0 1.1-.1 1.3-.2.3-.2.5-.4.5-.8s-.2-.7-.5-.8c-.9-.1-2-.1-3.1-.1h-3.1v-1.4c0-.5.1-1 .2-1.4.9-.2 1.8-.3 2.9-.3 1.1 0 2.1-.2 3-.4.4-.1.7-.2.8-.3.2-.2.2-.3.2-.5s-.1-.4-.2-.6c-.1-.2-.3-.4-.5-.5-.8-.6-1.9-.5-3-.4" fill="#e6332a"/><path d="M56 153.3c-.5-.8-1.2-1.7-2-2.4-.8-.8-1.8-1.5-2.9-2.2-1.1-.7-2.3-1.4-3.5-2 1.1-.5 2.1-1.1 2.8-1.8.8-.7 1.1-1.5 1.1-2.5 0-.5-.1-.9-.4-1.3-.2-.4-.6-.8-1-1.2-.4-.3-1-.6-1.6-.8-.6-.2-1.4-.3-2.1-.3-.9 0-1.7.1-2.5.3-.8.2-1.4.5-2 .9-.6.4-1 .8-1.3 1.3-.3.5-.5 1.1-.5 1.7 0 .5.1.9.2 1.3s.3.8.5 1.1c.2.4.6.7 1 1.1.4.4 1 .8 1.7 1.3-1 .4-2 1-3 1.6-1 .6-1.9 1.3-2.7 2-.8.8-1.5 1.6-2 2.5-.5.9-.8 1.8-.8 2.8 0 .7.1 1.4.4 1.9.2.5.6.9 1 1.3.4.3.9.6 1.4.7.6.2 1.1.2 1.7.2 1.4 0 2.6-.4 3.5-1.1.9-.8 1.4-1.8 1.4-3 0-1.4-.5-2.4-1.5-3.2-1-.8-2.3-1.1-4.1-.9.4-.5.8-.9 1.2-1.3.4-.4.9-.8 1.4-1.1.5-.3 1-.7 1.5-.9.5-.3 1-.5 1.4-.7 1.1.5 2.1 1.1 3.1 1.8 1 .6 2 1.3 3 2-.6.1-1.1.4-1.6.6-.5.3-1 .6-1.3 1-.4.4-.7.8-.9 1.3-.2.5-.3 1-.3 1.5 0 .7.1 1.4.4 1.9.3.5.6 1 1.1 1.3.5.3 1 .6 1.6.8.6.2 1.3.3 2 .3.6 0 1.3-.1 1.9-.3.6-.2 1.2-.5 1.7-.9s.9-.9 1.2-1.5c.3-.6.5-1.3.5-2.2.1-1.2-.2-2-.7-2.9m-16 .4c.4.2.7.5 1 .8.3.3.4.7.5 1.1.1.4.2.9.2 1.3 0 .8-.1 1.5-.4 1.9-.3.5-.7.7-1.3.7-.2 0-.5-.1-.7-.2-.2-.2-.5-.4-.7-.7-.2-.3-.4-.6-.5-1.1-.1-.4-.2-.9-.2-1.4 0-.5.1-1 .2-1.5s.3-.9.6-1.2c.4 0 .9.1 1.3.3m6.6-7.6c-.9-.5-1.6-1.2-2.3-1.9-.6-.7-1-1.4-1-2.1 0-.2.1-.5.2-.8.1-.3.3-.5.5-.7.2-.2.5-.4.9-.5.3-.1.8-.2 1.2-.2.7 0 1.2.3 1.7.8.4.5.6 1.1.6 1.7 0 1-.1 1.8-.4 2.3-.2.5-.7 1-1.4 1.4m6.7 11.6-.3.9c-.1.3-.3.5-.6.7-.2.2-.6.3-.9.3-.3 0-.6-.1-.9-.3-.3-.2-.5-.4-.7-.8-.2-.3-.4-.7-.5-1.1-.1-.4-.2-.8-.2-1.2 0-1 .2-1.8.6-2.3.4-.5.9-.9 1.5-1.2.5.4 1 1 1.4 1.7.4.7.7 1.4.7 2.3 0 .4 0 .7-.1 1" fill="#917a54"/><path class="st3" d="M230.2 150.8c0 2.7-.4 4.8-1.3 6.3-.9 1.6-2.1 2.3-3.6 2.3-.9 0-1.5-.3-1.9-.8-.4-.5-.6-1.4-.6-2.7v-6.2c0-1.5-.4-2.8-1.3-3.7-.9-.9-2-1.4-3.4-1.4-2.3 0-4.3 1.2-5.8 3.5v-10.7h-3v24.1h3v-10.8c1.6-2.4 3.4-3.6 5.2-3.6.8 0 1.4.3 1.8.8.4.5.5 1.4.5 2.6v5.5c0 1.4.1 2.4.3 3 .2.6.5 1.2 1.1 1.7.8.8 1.9 1.2 3.2 1.2 2.6 0 4.7-1.1 6.3-3.4 1.6-2.3 2.4-5.3 2.4-9.1 0-1.7-.2-3.2-.5-4.5h-3.3c.5 1.6.9 3.5.9 5.9"/><path d="M169.6 302.6c-1.3-2.1-3.2-3.9-5.6-5.3l6.8-10.3h-18.7l6.6 10.3c-2.5 1.5-4.3 3.3-5.7 5.3-1.3 2.1-2 4.3-2 6.8h3.2c0-2.2.5-4.1 1.5-5.8 1-1.7 2.4-3.1 4.1-4v9.9h3v-9.9c1.7 1 3.1 2.3 4.1 4 1 1.7 1.5 3.7 1.5 5.8h3.1c0-2.5-.6-4.7-1.9-6.8m-8.2-5.6-4.2-7.4h8.5c-.8 1.3-2.2 3.8-4.3 7.4" fill="#fcea10"/><path d="M227.4 41.8h-2.8l-4 10.2h-6.4V41.8h-2.7v19.9h2.7v-7.4h5.5l-2.8 7.4h2.8l2.7-7.4h2.3v7.4h2.6v-7.4h2.4l2.9 7.4h3l-8.2-19.9zM223.2 52c1.6-4.2 2.5-6.9 2.8-8.1.3 1.3 1.3 4 2.8 8.1h-5.6z" fill="#1d71b8"/><path d="M113.1 195.3c-1.2-2.9-2.8-5.3-4.8-7.1-2.2-2-4.5-3.1-6.8-3.1-1.8 0-3.6.5-5.2 1.6-1.4.9-2.7 2.1-3.8 3.5l1.3 2.3c1.5-2 3-3.5 4.6-4.3v8h2.7v-8.8c2.8.1 5.5 2.3 8.1 6.6-3.5.5-5.3 2.8-5.3 6.7v7.3h2.8v-7.2c0-1.5.3-2.5.8-3.1.6-.7 1.6-1.1 3-1.1.9 2.8 1.4 5.3 1.4 7.4 0 5.1-2.2 7.7-6.7 7.7-1.2 0-2.5-.1-3.9-.2l1.3 2.7c4.3 0 7.3-.7 9.1-2.1 2.1-1.6 3.2-4.6 3.2-8.9-.1-2.5-.7-5.2-1.8-7.9" fill="#dedc00"/><path fill="#f08ab7" d="M95.7 90.3v2.9l7.3 7.8-7.3 8.6v3.1h15.9V110H98.9l7.6-9-7.6-8.1h12v-2.6z"/><path d="M281.6 91.8c0 6.8-1.8 11.6-5.3 14.2l-4.1-14.2h-2.8l4.6 15.7c-1.6.7-3.3 1-5.1 1l.3 2.9c4.4 0 8-1.7 10.8-5.1 2.8-3.4 4.2-8.2 4.2-14.5h-2.6z" fill="#f4bf23"/><path class="st9" d="M167.7 248.2c.5-.6.9-1.2 1.1-1.8.3-.7.5-1.4.5-2.1l.4-3.6h-2.9l-.2 2.8c-.1.9-.2 1.7-.4 2.3-.2.6-.5 1.1-.9 1.6s-.9.9-1.5 1.3c-1.7-.9-2.9-1.6-3.4-2.1-.6-.5-.9-1.1-1.2-1.8-.2-.6-.3-1.6-.3-2.9v-1.2H156v1.2c0 1.5.2 2.8.6 3.8.4 1 1 1.9 1.8 2.7.8.8 1.7 1.4 2.7 1.9l4.4 2.2c1.2.6 1.9 1.1 1.9 1.5 0 .4-.3.7-1 .7H156v2.9h10.4c2.5 0 3.7-1.2 3.7-3.5 0-.7-.2-1.4-.7-2-.4-.6-1.6-1.4-3.4-2.3.6-.6 1.2-1.1 1.7-1.6"/><path class="st10" d="M224.6 193.7c-1.2-1-2.8-1.7-4.8-2.1l.3-5.2h-3.7c-1 0-1.8.2-2.6.7-.9.6-1.3 1.3-1.4 2.2 0 .9.5 1.7 1.7 2.3.8.5 1.8.8 3 1l-.6 10.8c-2.1-.1-3.1-1.5-3.1-4.3h-2.1c.3 3.7 2 5.6 5.1 5.9l-.4 7.8h2.7l.4-7.9c2.4-.2 4.2-.8 5.3-1.7 1.3-1.1 2-2.7 2.2-5 .1-1.8-.6-3.3-2-4.5m-7.5-2.5c-1.5-.3-2.2-.9-2.2-1.8 0-.5.3-.9.8-1.3.4-.3.9-.4 1.5-.4h.1l-.2 3.5zm5.2 10.5c-.9 1-1.9 1.6-3.2 1.8l.6-10.4c1.2.4 2.2 1 2.9 2 .8 1 1.2 2.1 1.1 3.3-.1 1.2-.5 2.3-1.4 3.3"/><path class="st11" d="m46.8 39.6-3.6-2.2-1.3 2.4 3.6 2.1zM40.6 42.4l1.3-2.6-3.5-2.1-1.3 2.5zM39.1 32.9l-1.3 2.5 3.6 2.2 1.4-2.6zM51 68.4c-1.1.1-2 .2-2.8.3-.8.1-1.5.1-2 .1-4.6 0-7.2-1.1-7.7-3.2-.1-.7-.2-1.4-.2-2.1 0-4.1 2.5-7.5 7.5-10.2 1.5-.8 2.5-1.2 2.9-1.2h.1l.6-3.3c-.8.4-1.5.8-1.9 1-.5.2-.8.4-.9.4-1.3.6-2.2.9-3 .9-.3 0-.6-.1-1-.2s-.7-.3-1-.5c-.3-.2-.6-.5-.8-.7-.2-.3-.3-.6-.3-.9 0-.3.1-.6.3-.8.2-.3.5-.5.8-.7.3-.2.7-.4 1.1-.5.4-.1.8-.2 1.2-.2 1 0 1.9.2 2.6.5 0 0 .1 0 .1-.1 0-.3-.1-.7-.4-1.1-.3-.4-.6-.7-.9-1-.4-.3-.8-.6-1.2-.8-.4-.2-.8-.3-1.1-.3-1.1 0-2.2.8-3.2 2.3-.9 1.4-1.4 2.7-1.4 3.9 0 1.8.9 3 2.8 3.6-.2.1-.4.3-.7.6-.3.3-.5.6-.8 1.1-1 1.6-1.8 3.2-2.3 4.7-.6 1.5-.8 3-.8 4.3 0 1.1.2 2.1.6 3.1.4.9.9 1.7 1.6 2.4.7.7 1.5 1.2 2.5 1.6 1 .4 2 .6 3.2.6 1.9 0 3.9-.4 6-1.1 2.5-.9 4.1-2 4.8-3.4-.3.2-1.7.6-4.3.9"/><path d="M172.8 191.6v-2.3h-23v2.3h10.6v5.7c-1.5-1.8-3.1-2.6-5-2.6-1 0-1.9.3-2.6 1-.7.7-1.1 1.6-1.1 2.8 0 1.3.4 2.4 1.2 3.3.8.9 1.9 1.3 3.2 1.3 1.4 0 2.8-.7 4.3-2v7.1l1.9 2.2h.7v-11.1c1.2-1.1 2.4-1.6 3.5-1.6.8 0 1.4.2 1.7.7.4.5.6 1.2.6 2.2 0 1.3-.5 2.9-1.6 4.7l1.9 1.8c.9-1.6 1.4-3.2 1.4-4.7 0-1.9-.6-3.4-1.7-4.5-1.1-1.2-2.4-1.7-3.7-1.7-.8 0-1.5.2-2.1.5v-5.2h9.8zm-12.4 6.9c-2.3 2.1-4.1 3.2-5.4 3.2-.7 0-1.2-.2-1.6-.6-.4-.4-.6-.9-.6-1.5 0-.7.4-1.3 1.1-1.8.8-.5 1.8-.8 3.2-.8 1.3 0 2.4.4 3.3 1.1v.4z" fill="#2e4b2e"/><path class="st13" d="M287.2 330.7c-1.9-1.8-4.7-2.7-8.3-2.7-4.2 0-7.6 1.3-10.2 3.9-2.7 2.6-4 5.9-4 10 0 2.8.8 5.3 2.2 7.7-2.5 2-3.8 3.8-3.8 5.3 0 .8.3 1.4.8 1.8.5.4 1.3.6 2.4.6 2 0 4.1-.6 6.3-1.9 2.1 1.3 4 1.9 5.8 1.9 1.9 0 3.5-.5 4.8-1.6 1.3-1 1.9-2.4 1.9-4.1 0-2.2-1-3.8-3.1-4.9 1-1.6 1.5-3.3 1.5-4.9 0-2.1-.6-3.8-1.7-5.1-1.1-1.3-2.7-1.9-4.7-1.9-1.6 0-3 .5-4.2 1.4-1.1.9-1.7 2.1-1.7 3.6 0 1.1.4 2.1 1.1 2.8.7.7 1.7 1.1 2.9 1.1 1 0 1.8-.3 2.5-1s1-1.5 1-2.4c0-1-.3-1.8-1-2.4-.6-.6-1.5-1-2.4-1-.7 0-1.4.2-2.1.5.9-.9 2-1.3 3.1-1.3 1.3 0 2.4.4 3.2 1.3.8.9 1.2 2 1.2 3.4 0 1.6-.4 3.2-1.2 5-.4-.1-1-.2-1.8-.2-1.6 0-3.2.3-5 .9-1.8.6-3.4 1.4-4.8 2.4-1.4-1.9-2-4.2-2-6.8 0-3.3 1.2-6 3.6-8.2 2.4-2.2 5.3-3.3 8.7-3.3 3.1 0 5.6.9 7.6 2.6 1.9 1.7 2.9 4.1 2.9 7 0 .9-.2 3.4-.6 7.5l-1 9.7h1.1l1.1-11.2c.4-4 .6-6.6.6-7.6.2-3.6-.8-6.1-2.7-7.9m-12.6 7.3c.4 0 .8.2 1.1.5.3.3.5.7.5 1.1 0 .4-.2.8-.5 1.2-.3.3-.7.5-1.1.5-.5 0-.9-.2-1.2-.5-.3-.3-.5-.7-.5-1.2s.2-.9.5-1.2c.3-.3.7-.4 1.2-.4m6.4 10.5c.9.5 1.4 1.3 1.4 2.6 0 1.1-.5 2-1.5 2.7-1 .8-2.1 1.2-3.2 1.2-1.4 0-2.4-.2-3.1-.7 2.2-1.4 4.3-3.4 6.4-5.8m-4-1.5c.6 0 1.2.1 1.8.3-1.5 2.5-3.4 4.5-5.8 6.1-.7-.4-1.5-.9-2.3-1.6-.8-.7-1.5-1.4-1.9-2 2.6-1.8 5.4-2.8 8.2-2.8m-5.6 7.5c-1.8 1.1-3.5 1.6-4.9 1.6-.7 0-1.2-.1-1.6-.3-.4-.2-.5-.5-.5-.9 0-.6.3-1.3 1-2.1.6-.8 1.4-1.5 2.3-2.1 1.3 1.6 2.6 2.9 3.7 3.8"/><path class="st14" d="M117.5 144.6c-.7-1.3-1.5-1.9-2.5-1.9-.4 0-.8.1-1 .3-.2.2-.3.5-.3.9 0 .6.5 1.2 1.5 1.9 1.4 1 2.2 2.3 2.2 4 0 1.8-.5 3.3-1.5 4.4-1 1.1-2.1 1.7-3.3 1.7-.9 0-1.5-.2-1.9-.5-.4-.4-.6-1-.6-1.9 0-.4.1-1.2.2-2.3.1-1.2.2-2.1.2-2.8 0-1-.3-1.8-.8-2.4-.5-.5-1.2-.8-2-.8-1.2 0-2.2.3-3 1-.9.7-1.6 1.7-2.2 3.1-.5-1.4-1.2-2.4-2.2-3.1-1-.7-2.2-1-3.6-1-2.4 0-4.4.8-5.8 2.4-1.4 1.6-2.1 3.5-2.1 5.7 0 1.6.4 2.8 1.2 3.8.8.9 1.9 1.4 3.2 1.4 1.2 0 2.1-.4 2.9-1.1.8-.8 1.1-1.8 1.1-3s-.4-2.1-1.2-2.9c-.8-.8-1.7-1.2-2.9-1.2-1 0-2 .4-3.1 1.3.5-1.5 1.2-2.8 2.3-3.7 1.1-.9 2.2-1.4 3.5-1.4 1.4 0 2.6.4 3.4 1.3.9.9 1.3 2.1 1.3 3.7v.7l-.5 5.9h2.7l.5-6.5c.1-1.3.5-2.3 1.1-3.1.6-.8 1.3-1.1 2.1-1.1.5 0 .8.2 1.1.5.2.3.4.8.4 1.5 0 .4-.1 1.2-.2 2.3-.1 1.1-.2 2-.2 2.7 0 1.3.4 2.3 1.2 3 .8.7 1.8 1.1 3.1 1.1 1.8 0 3.4-.8 4.8-2.5s2-3.7 2-6.1c0-2.3-.4-4-1.1-5.3m-26.8 7.7c.4-.4.9-.6 1.5-.6s1.1.2 1.5.6c.4.4.6.9.6 1.5s-.2 1.1-.6 1.5c-.4.4-.9.6-1.5.6s-1.1-.2-1.5-.6c-.4-.4-.6-.9-.6-1.5s.2-1.1.6-1.5"/><path class="st15" d="M226.1 293.3c-.5 1.4-1.3 2.7-2.5 3.8-1.2 1.1-2.1 1.7-2.9 1.7-.2 0-.3-.1-.4-.3-.1-.2-.1-.5-.1-.9v-2.9c1.2 0 2.2-.3 3.1-1 .9-.6 1.3-1.4 1.3-2.3 0-.9-.3-1.6-.9-2.1-.6-.5-1.4-.8-2.3-.8-1 0-1.8.4-2.3 1.1-.5.7-.8 1.8-.8 3.2-1.7-.5-3.1-1.8-4.3-3.9l-.7.3c.4 1.1 1.1 2.2 2 3.2.9 1 1.9 1.7 2.9 2.1v3.6c0 .7.3 1.3.8 1.8s1.1.7 1.6.7c.7 0 1.5-.2 2.4-.7.9-.4 1.7-1 2.4-1.7l1-1c.2 0 .2.4.2 1.1 0 1.5-.6 2.9-1.7 4.3s-2.6 2.1-4.6 2.1c-2.2 0-4.2-1.3-6-3.9-1.8-2.6-3.1-6.4-3.7-11.5h-.6c.4 4.7 1.6 8.9 3.6 12.5 2 3.7 4.4 5.5 7.4 5.5 2 0 3.6-.8 4.9-2.4 1.3-1.6 1.9-3.7 1.9-6.2.1-1.9-.5-3.7-1.7-5.4m-5.8-1.6c0-.7.1-1.3.4-1.7.3-.4.7-.6 1.1-.6.8 0 1.3.4 1.3 1.1 0 .6-.3 1.1-.8 1.5-.6.5-1.2.7-1.8.7h-.2v-1z"/><path d="M282.7 288.4V303c-.7-1.3-1.3-2.3-1.8-3.2-.5-.9-1-1.5-1.4-2V290l-1.3-4.1h-.6v6.8c-1.4-1.7-2.5-2.9-3.3-3.5-.8-.6-1.4-1-2-1.3.5 1 .7 1.9.7 2.7 0 1.3-.3 2.3-1 3-.7.7-1.5 1.1-2.4 1.1-.4 0-.8-.1-1.1-.2-.3-.2-.4-.3-.4-.5 0-.3.2-.5.6-.6.7-.2 1.2-.4 1.4-.8.3-.4.4-.8.4-1.1 0-.7-.2-1.3-.6-1.8-.4-.5-1-.7-1.7-.7-.8 0-1.5.2-2 .8-.5.5-.8 1.2-.8 2 0 1 .4 1.9 1.2 2.6.8.8 1.8 1.1 3 1.1 1.3 0 2.4-.4 3.5-1.2 1.1-.8 1.7-1.9 1.8-3.1.6.4 1 .7 1.3 1.1.3.3.4.7.4 1 0 .4-.4 1-1.1 1.9-.8.8-2 1.6-3.6 2.2-1.6.6-3.6.9-6 1l1 3.1c1.2-.1 2.5.1 3.7.4 1.2.3 2.5.8 3.7 1.5-.7.9-1.6 1.6-2.7 2.1s-2.5.8-4 .9l.7 2.2h.9c1 0 2.1.2 3.1.5s1.9.8 2.9 1.4l.5-.5c-.6-.6-1.3-1.1-2.1-1.6-.8-.4-1.6-.7-2.5-.9.7-.2 1.3-.6 2-1.2s1.3-1.4 2-2.4c.8.5 1.5 1.1 2.1 1.7.6.6 1.1 1.3 1.5 2h.7v-7.2c.9.7 1.7 1.6 2.4 2.8.8 1.2 1.5 2.7 2.1 4.4h.6v-17.3h3.1v-1.7h-4.9zm-5.1 16.5c-1-1.2-2.1-2.1-3.2-2.9-1.1-.8-2.3-1.4-3.5-1.8 1.7-.6 3.1-1.3 4.2-2.3 1.1-1 2-2.2 2.5-3.6v10.6z" fill="#312783"/><path class="st13" d="M222.5 241.4c.1-.3.2-.5.4-.6.2-.2.3-.3.5-.4.2-.1.4-.1.6-.1.2 0 .4 0 .6.1.2.1.3.2.4.3.1.1.2.2.2.3 0 .1.1.2.1.4 0 .1 0 .3-.1.5s-.2.4-.4.6l1.6 1.2c.2-.2.3-.4.4-.5.1-.2.2-.3.3-.5.1-.2.2-.4.2-.6.1-.2.1-.5.1-.8 0-.4-.1-.8-.3-1.2-.2-.4-.4-.7-.8-1-.3-.3-.7-.5-1.1-.7-.4-.2-.8-.2-1.3-.2s-1 .1-1.5.3c-.5.2-.9.4-1.2.8-.3.3-.6.8-.8 1.3-.2.5-.3 1.1-.3 1.8 0 .6.1 1.1.2 1.7.1.5.3 1.1.6 1.6.2.5.5 1 .7 1.5.3.5.5 1 .7 1.5.2.5.4 1.1.6 1.6.1.5.2 1.1.2 1.7 0 .5-.1 1.1-.2 1.7-.2.6-.4 1.2-.8 1.7s-.9.9-1.5 1.3c-.6.3-1.4.5-2.4.5-.4 0-.9-.1-1.3-.2-.5-.1-.9-.3-1.3-.6s-.7-.6-1-1.1c-.3-.4-.4-.9-.4-1.5 0-.4.1-.7.2-1 .1-.3.3-.6.5-.8.2-.2.5-.4.8-.5.3-.1.6-.2.8-.2h1.6V249h-2c-.3 0-.7 0-1-.1-.3-.1-.7-.2-1-.3-.3-.2-.5-.4-.7-.7-.2-.3-.3-.6-.3-1.1 0-.4.1-.8.4-1.1.3-.3.6-.5.9-.7.4-.2.8-.3 1.2-.5.4-.1.8-.2 1.1-.2l-.3-2.1c-.8.1-1.6.3-2.2.5-.7.3-1.2.6-1.7.9-.5.4-.8.8-1.1 1.3-.3.5-.4 1-.4 1.5s.1 1 .2 1.4c.1.4.3.8.6 1.1.2.3.5.6.8.8.3.2.7.4 1 .5-.6.5-1 1.1-1.2 1.6-.2.5-.3 1.1-.3 1.7 0 .9.2 1.7.6 2.4.4.7.9 1.3 1.5 1.7.6.5 1.3.8 2 1 .7.2 1.5.3 2.2.3 1.1 0 2.1-.2 3-.5.9-.4 1.6-.9 2.2-1.5.6-.7 1.1-1.4 1.4-2.3.3-.9.5-1.8.5-2.9 0-.6-.1-1.2-.2-1.8-.1-.6-.3-1.1-.6-1.7-.2-.5-.5-1.1-.7-1.6-.3-.5-.5-1-.7-1.6l-.6-1.5c-.1-.5-.2-1-.2-1.5-.1 0-.1-.3 0-.6"/><path class="st9" d="M52.9 349.4c.2-.1.5-.2.8-.3.3 0 .6-.1.9-.1l1.8-1.5c-.3-.2-.6-.5-.9-.8-.3-.2-.6-.5-.9-.8-.3-.3-.6-.7-1-1 .5-.3.9-.6 1.3-.9l.8-.8c.2-.3.4-.6.5-.9.1-.3.1-.7.1-1.1 0-.4-.1-.8-.2-1.2-.2-.4-.4-.7-.7-1-.3-.3-.7-.5-1.1-.7-.4-.2-.9-.2-1.4-.2-.4 0-.9.1-1.3.2-.4.2-.8.4-1.2.7-.3.3-.6.7-.8 1.1-.2.4-.3.9-.3 1.5 0 .5.1.9.3 1.4.2.5.5.9.8 1.3l-3.1 1.7v-8.7h-2.1v7c-.4-.4-.9-.9-1.3-1.2-.5-.4-.9-.7-1.4-1-.5-.3-1-.5-1.5-.7-.5-.2-1-.3-1.6-.3-.5 0-.9.1-1.3.2s-.8.3-1.1.5c-.3.2-.6.5-.9.8-.3.3-.4.7-.6 1l1.7 1c.1-.2.2-.3.3-.5.1-.2.3-.3.5-.5.2-.1.4-.3.7-.4.3-.1.6-.1.9-.1.6 0 1.2.1 1.7.3.5.2 1 .5 1.5.8.5.3.9.7 1.3 1.1l1.2 1.2v.6l-7.6 4.3 1.1 1.8c.6-.4 1.3-.7 2-1.1.6-.3 1.3-.7 2.1-1.2.8-.4 1.6-.9 2.5-1.4v4.9c0 .4 0 .7.1 1 .1.3.2.6.4.9.2.3.4.5.7.6.3.2.6.2 1 .2.3 0 .6 0 .8-.2.2-.1.5-.2.6-.4l.5-.5.3-.6-1.1-.9c-.1.1-.2.3-.3.4-.1.1-.2.1-.4.1s-.4-.1-.4-.2c-.1-.1-.1-.3-.1-.5v-6.1l4.5-2.6c.3.3.6.6.9.8.3.2.5.4.7.5-.3.1-.7.2-1.1.3-.4.2-.8.4-1.1.7-.4.3-.7.6-.9 1.1-.2.4-.4.9-.4 1.5 0 .5.1 1 .3 1.4.2.4.4.8.7 1.1.3.3.7.6 1.1.7.4.2.8.3 1.3.3h.5c.2 0 .4-.1.6-.1.2 0 .5-.1.7-.2l.6-.3.7-2.4c-.7.4-1.3.6-1.7.7-.4.1-.8.1-1 .1-.2 0-.5 0-.7-.1-.2-.1-.4-.2-.5-.3-.2-.1-.3-.3-.4-.5-.1-.2-.1-.3-.1-.5 0-.4.1-.6.2-.9 0 .2.3 0 .5-.1m-.4-6.2-.1.1-.6-.9c-.1-.3-.2-.5-.2-.8 0-.5.1-.9.4-1.2.3-.3.7-.5 1.3-.5.3 0 .6.1.9.3.3.2.4.4.4.8v.4c0 .2-.1.3-.3.5-.1.2-.4.4-.6.6-.3.1-.7.4-1.2.7"/><path class="st3" d="M285.7 196.4c-.1-.4-.3-.9-.6-1.3s-.6-.8-1.1-1.1c-.4-.3-1-.6-1.5-.7v-6.2h-2.1v6.2c-.8.1-1.4.4-2 .9-.6.4-1.1.9-1.6 1.4-.8-.9-1.6-1.5-2.3-1.9-.7-.3-1.5-.5-2.3-.5-.6 0-1.1.1-1.7.3-.6.2-1.1.5-1.6 1-.5.4-.9 1-1.1 1.6-.3.6-.4 1.3-.4 2.2 0 .6.1 1.2.3 1.8.2.6.5 1.2.9 1.7.4.6.8 1.1 1.2 1.6.5.5.9 1 1.4 1.4.5.4 1 .8 1.4 1.2.5.4.9.7 1.2.9l1.2-1.5c-.2-.2-.6-.4-.9-.7l-1.2-.9c-.4-.3-.8-.7-1.2-1.1-.4-.4-.8-.8-1.1-1.3-.3-.5-.6-1-.8-1.5-.2-.5-.3-1.1-.3-1.6 0-.3.1-.6.2-1 .1-.3.3-.7.5-.9.2-.3.5-.5.9-.7.4-.2.8-.3 1.3-.3s1 .1 1.6.4c.5.2 1.2.7 1.9 1.4-.2.2-.3.5-.4.7-.1.2-.2.4-.3.5l1.8 1.1c.2-.4.4-.8.7-1.3.3-.5.6-.9 1-1.3s.8-.7 1.2-1c.5-.3 1-.4 1.5-.4.3 0 .6 0 .9.1.3.1.6.2.8.4.2.2.4.4.6.7.2.3.2.6.2 1 0 .6-.2 1.1-.5 1.5-.3.4-.7.7-1.2 1-.5.3-1 .5-1.6.8-.6.2-1.1.5-1.6.8-.5.3-.9.7-1.2 1.1-.3.4-.5 1-.5 1.7 0 .3.1.6.2.8.1.3.2.5.4.7l.6.6c.2.2.4.3.7.4-.4.2-.6.6-.8 1-.2.4-.3.8-.3 1.3 0 .4.1.9.3 1.3.2.4.4.8.7 1.1.3.3.7.6 1.1.7.4.2.9.3 1.4.3.4 0 .7-.1 1.1-.2.3-.1.6-.2.9-.4.2-.2.5-.3.6-.5.2-.2.3-.3.4-.5l-.9-1.4c-.2.2-.4.4-.8.6-.4.1-.7.2-1.1.2h-.5c-.2 0-.4-.1-.6-.2-.2-.1-.4-.2-.5-.4-.1-.2-.2-.4-.2-.7 0-.1 0-.2.1-.4 0-.1.1-.3.2-.4.1-.1.2-.2.4-.3.2-.1.4-.1.7-.1h1.4l-.2-2h-1c-.6 0-1.1-.1-1.4-.5-.4-.3-.5-.7-.5-1.1 0-.4.2-.7.5-1 .3-.3.7-.5 1.2-.8.5-.2 1-.5 1.6-.7.6-.3 1.1-.6 1.6-.9.5-.4.9-.8 1.2-1.4.3-.5.5-1.2.5-2-.4-.4-.4-.8-.6-1.3"/><path d="M169.7 338.7v14.5c-1.4-1.5-2.9-2.5-4.4-3.1v-5.8c0-1.3-.4-2.4-1.3-3.4s-2-1.8-3.4-2.4l-2.6 2.3-2.6-2.2c-3.3 1.3-5 3.4-5 6.5 0 .9.3 2.4.8 4.3s.8 3.3.8 4.2v2.5h2.6c0-.3.1-.7.4-1.2.3-.4.9-1.2 2-2.2 1.5-1.5 2.4-2.6 2.8-3.4.4-.8.6-1.6.6-2.3v-.1a2.732 2.732 0 0 0-2.7-2.7 2.732 2.732 0 0 0-2.7 2.7c0 .6.2 1.1.5 1.6.4.5.8.8 1.4 1-.2.4-.6.9-1.1 1.6l-1.4 1.9c0-.7-.3-2-.8-4.1-.5-1.9-.7-3.2-.7-3.8 0-2 .8-3.3 2.5-4.1l2.6 2.2 2.6-2.2c1.5.9 2.2 2 2.2 3.4v5.5c-1.1.2-2 .6-2.7 1.2-.7.6-1 1.4-1 2.2 0 .9.2 1.6.7 2.1.5.5 1.1.8 1.9.8 2.3 0 3.5-1.4 3.5-4.3 1.5.7 3 2.1 4.5 4.2h2.4v-17.3h-2.4zm-13 8.1c0-.2.1-.5.3-.7.2-.2.4-.3.7-.3.2 0 .5.1.6.3.2.2.3.4.3.7 0 .3-.1.5-.3.7-.2.2-.4.3-.6.3-.3 0-.5-.1-.7-.3-.2-.2-.3-.4-.3-.7m6.1 6.2c0 .4-.1.8-.3 1-.2.2-.4.4-.7.4-.2 0-.4-.1-.6-.3-.2-.2-.3-.5-.3-.8 0-.4.2-.8.5-1.1.3-.3.8-.5 1.4-.6v1.4z" fill="#878787"/><path class="st10" d="M223 89c-.6.9-1.6 2-3.3 3.2-2.9 2.2-5.9 3.7-10.1 5 .7.8.9 1.1 1.2 2 2.3-.8 5-2 6.9-3.1 2.2-1.3 4-2.6 6.2-4.8.4-.4.6-.5 1.1-.9l-2-1.4zM222.7 100.9l.2-.2c1.6-1.1 4.6-3.7 6-5.2.4-.5.5-.5 1-.9l-2-1.5c-1.4 2.3-6.5 6.5-10.9 8.8-3 1.6-5.2 2.4-9 3.5.7.7.9 1 1.2 2 3.8-1.3 5-1.7 7.2-2.9 1.4-.7 2.5-1.3 4-2.2v8.5c0 1.7 0 2.3-.2 3.1h2.6c-.1-.8-.1-1.5-.1-3.2v-9.8z"/><path class="st3" d="M164.7 46.6c-.7-1.3-1.1-1.9-2-3l-1.6.7c.9 1.1 1.4 1.9 2.1 3.2l1.5-.9zM159.3 48.5c-.8-1.5-1.2-2-2.4-3.5l-1.6.7c1.1 1.3 1.6 2.1 2.4 3.7l1.6-.9zM168.7 39c-.8.5-1.9 1.1-3.7 1.6-3.6 1.2-7.8 1.9-12.6 2.3.6.7.8 1.1 1 1.8 2.8-.3 4.9-.7 7.5-1.2 3.3-.8 5.1-1.3 8.2-2.5.9-.4.9-.4 1.2-.5l-1.6-1.5z"/><path class="st3" d="M169.8 43.7c-.6.8-1.8 1.7-3.5 2.7-4.2 2.6-8.9 4.2-14.5 4.9.6.7.8 1 1.1 1.8 4-.8 6.9-1.7 10.5-3.2.8.8 1 1.1 1.5 1.9-3.3 2.2-8 3.9-13.2 4.7.6.6.8 1 1.2 1.8 5.5-1.3 9.5-2.8 12.9-5.1.5.9.7 1.5.9 2.2.1.2.1.2.1.3-1.8 1.4-2.9 2-5 3-3.4 1.6-6.3 2.5-10.3 3.2.6.7.9 1 1.2 1.8 3.5-.8 6-1.7 9-3 2.3-1.1 3.8-2 5.5-3.2.2 1.4.3 2 .3 3.2 0 2.8-.6 3.5-2.8 3.5-1.1 0-2.1-.1-3.4-.4.3.8.4 1.1.5 2 1.2.1 1.9.1 2.8.1 1.9 0 2.9-.2 3.6-.9.9-.8 1.3-2.3 1.3-4.7 0-4.3-1.5-8.2-4.3-11.2 2.2-1.1 3.8-2.1 6.3-4l-1.7-1.4z"/><path class="st18" d="M55.3 188.9c-1 .6-1.9 1-3.5 1.4-4.1 1.2-10.4 2-15.1 2-.8 0-1.3 0-2.6-.1.4.7.6 1.1.8 2 3.2-.1 4.5-.2 6-.3 3.3-.3 6.9-.9 9.6-1.5 2.6-.6 4.1-1.1 6.5-2l-1.7-1.5zM54.2 184.8c-2.9 1.6-10.1 2.8-16.5 2.8-.9 0-1.6 0-3-.1.7 1.2.8 1.3.9 2 8.4-.2 15.7-1.4 20.4-3.3l-1.8-1.4zM46.6 202.9h6.5c1.2 0 2 0 2.8.2V201c-.8.1-1.3.1-2.8.1h-6.5v-3.6c4.8-.8 9.4-2 12-3.3l-1.9-1.4c-.9.6-2.8 1.3-5.3 2-4.7 1.2-12.1 2.1-17.3 2.1H33c.4.5.7 1.3.8 1.9 3.4-.2 6.7-.5 10.8-1.1v10c-2.6-.9-4.4-2.6-5.7-5.4.3-.9.4-1.4.7-2.6l-2-.4c-.2 3.5-2.3 7.5-5.3 10.4.8.5 1.1.7 1.7 1.4 1.8-2 3-3.9 4.2-6.8 1.9 3.5 4.4 5.1 8.7 5.7 1.8.3 4.4.4 7.2.4 1.4 0 2.4 0 4.7-.1.1-.8.2-1.1.6-2.1-3.1.3-4.7.3-6.8.3-2.5 0-4.3-.1-6.1-.4v-5.2z"/><path class="st0" d="M114.8 358.9h-3.6l-2.8-7.3h-10l-2.6 7.3h-3.3l9.2-23.9h3.4l9.7 23.9zm-7.3-9.8c-2-5.2-3.1-8.1-3.3-8.8-.3-.7-.5-1.6-.8-2.8h-.1c-.3 1.6-.7 3.1-1.2 4.5l-2.7 7.2h8.1z"/><path class="st19" d="M285.5 156.1h-5l-1.4 6.9h-2.5l1.4-6.9h-5.1l-1.4 6.9H269l1.4-6.9h-2.8v-2.4h3.2l1.2-5.9h-4.5v-2.4h4.9l1.4-7h2.4l-1.4 7h5.1l1.4-7h2.4l-1.4 7h2.8v2.4h-3.3l-1.2 5.9h4.5v2.4zm-5.8-8.3h-5.1l-1.2 5.9h5.1l1.2-5.9z"/><path d="M153.3 139.3h3.1v14c0 2.2.4 3.8 1.2 4.9.8 1 2.1 1.5 3.9 1.5 1.8 0 3-.5 3.7-1.4.7-1 1.1-2.6 1.1-4.8v-14.1h2.8v14c0 3-.6 5.2-1.9 6.6-1.2 1.4-3.2 2.1-5.9 2.1-2.8 0-4.8-.7-6.1-2.1-1.3-1.4-2-3.6-2-6.6v-14.1z" fill="#f9b233"/><path d="M109.5 59.4c1.8-2.1 2.7-4.7 2.7-7.6h-2.7v1c0 2.2-.4 3.9-1.2 5-1.8-2.1-3.4-4.3-4.7-6.6 2.9-1.5 4.4-3.2 4.4-5.2 0-1.2-.4-2.1-1.3-2.9-.8-.8-1.9-1.1-3.2-1.1-1.3 0-2.5.4-3.4 1.2-.9.8-1.4 1.8-1.4 3 0 1.1.4 2.4 1.4 4.1-3.3 1.1-4.9 3.2-4.9 6.3 0 1.9.7 3.4 2 4.6 1.4 1.2 3.1 1.8 5.2 1.8 2 0 3.7-.6 5.2-1.7l1 1.2h3.8c-1.1-1.1-2-2.1-2.9-3.1m-6.1-15.5c1.4 0 2.1.7 2.1 2.1 0 1.4-1 2.6-2.9 3.5-.9-1.4-1.3-2.6-1.3-3.5 0-1.4.7-2.1 2.1-2.1m-.6 17c-1.4 0-2.6-.5-3.5-1.5-1-1-1.4-2.2-1.4-3.6 0-1.9 1-3.2 3.1-4 1.7 2.9 3.5 5.6 5.4 7.9-1.2.8-2.4 1.2-3.6 1.2" fill="#00a19a"/><path class="st15" d="M44.8 91.4c.4 0 1.2 0 1.2.3 0 .2-.2.4-.6.6-.1 1.9-.1 3.6-.2 5.2 1.9 6.6 5.8 10.3 9.8 12.4-.6.7-1.4 1.7-2 2.5-3.9-2.7-7.1-6.1-8.7-9.6-1.6 5.3-5.5 8.3-8.7 9.8-.4-.6-1-1.3-2-2.5 6.9-2.8 8.9-7.4 8.9-16.3v-2.5h2.3z"/><path d="M269.6 62.8V48.6c0-1.7.2-3 .6-4 .4-1 1.1-1.7 2.2-2.2 1-.5 2.1-.8 3.3-.8 1.6 0 2.9.4 3.8 1.2 1 .8 1.5 1.8 1.5 2.9 0 .9-.3 1.8-.8 2.7-.1.2-.4.7-.8 1.4s-.6 1.3-.6 1.7c0 .4.2.8.5 1.1.3.3 1 .8 2.1 1.5 1.2.8 2 1.5 2.4 2.1.4.6.6 1.3.6 2.1 0 1.3-.5 2.4-1.5 3.4-1 .9-2.2 1.4-3.7 1.4-2.3 0-4.1-1.1-5.2-3.4l2.2-1.1c.8 1.6 1.8 2.4 2.9 2.4.7 0 1.3-.2 1.8-.7.5-.5.8-1.1.8-1.7 0-.5-.1-1-.4-1.3-.3-.3-.7-.7-1.4-1.2-1.4-1-2.4-1.8-2.9-2.4-.5-.6-.8-1.2-.8-1.9 0-.4.1-.9.2-1.2.2-.4.4-.9.8-1.6.6-1 .9-1.7 1.1-2.1.1-.4.2-.7.2-1 0-.6-.3-1.2-.8-1.6-.5-.4-1.2-.6-2-.6-1.1 0-1.9.3-2.5 1.1-.6.7-.9 2-.9 4v14.1h-2.7z" fill="#e83278"/><path d="M172.5 107.1c-.6-.2-1.3-.5-2.3-.9-1-.4-2-.8-3.1-1.1-1.1-.4-2.3-.7-3.4-1.1-1.2-.3-2.2-.6-3.2-.8v-.7c0-.3-.1-.6-.1-.9 0-.3-.1-.6-.1-.9 0-.3-.1-.5-.1-.7.6-.5 1.3-.9 2.2-1.5.8-.5 1.6-1.1 2.4-1.6.8-.6 1.5-1.1 2.2-1.6.7-.5 1.2-1 1.7-1.5.2-.3.2-.6 0-.9-.2-.3-.4-.4-.7-.4-.6.2-1.2.4-1.8.8-.7.4-1.3.9-2 1.4l-2.1 1.5c-.7.5-1.4 1-2.1 1.4-.2-.7-.3-1.4-.3-2.1 0-.8-.1-1.5-.1-2.2 0-.4-.1-.8-.2-1.3s-.2-.9-.4-1.2c-.2-.3-.3-.4-.6-.2-.2.1-.5.6-.7 1.5-.2 1.1-.2 2.2-.2 3.3 0 1.1.1 2.2.3 3.1-.6.3-1.3.6-2 .8-.7.3-1.3.5-1.9.8-.6.2-1.2.4-1.7.6-.5.2-.9.3-1.3.3-.5.3-.8.6-1 .9-.1.3-.1.6 0 .9.1.2.3.5.6.6.3.2.6.3.9.4.5.1 1 .2 1.6.2.6.1 1.2.2 1.9.3.6.1 1.3.2 1.9.3.6.1 1.1.2 1.6.4.1.6.1 1.2.1 1.7v1.4c0 .5.1 1 .1 1.7 0 .6.1 1.4.2 2.4.1.1.2.3.4.4.2.1.4.2.6.2.2 0 .4 0 .6-.1.2-.1.3-.2.3-.5.2-.1.3-.4.3-.9 0-.6-.1-1.2-.2-1.9l-.3-2.1c-.1-.7-.1-1.2-.1-1.6.5 0 1.2.2 2.1.4.9.2 1.9.5 3 .8 1.1.3 2.1.6 3.2.9 1.1.3 2 .5 2.8.7.2 0 .3-.1.4-.2.1-.1.2-.3.3-.4.1-.1.1-.3.1-.4.3-.3.3-.4.2-.4m-15.7-4.5c-.5-.1-1-.2-1.5-.2 0-.1 0-.2.2-.4.2-.1.4-.3.7-.4.3-.1.6-.3.9-.4.3-.1.6-.3.9-.4l.3 2.1-1.5-.3" fill="#063"/><path class="st14" d="m107.3 292.9 2.9 1.7 1.2-1.9-2.9-1.9zM111.4 292.7l3 1.9 1.3-2.2-3-1.8zM110.8 288.3l-3-1.9-1.2 2.1 2.9 1.7zM115 288l-3-1.8-1.2 2.1 3 1.9zM115.6 302.5c-.1-.8-.2-1.6-.4-2.4-.6-2.3-1.4-3.5-2.5-3.5-.9 0-1.8.7-2.8 2.2-.9 1.4-1.4 2.5-1.4 3.5 0 .9.5 1.7 1.5 2.3l2.7 1.2c-.1.2-1.7.3-4.6.4-2.3.1-4 .2-5.2.2-5 0-7.9-.4-8.9-1.1-.8-.7-1.2-1.5-1.2-2.5 0-.2.1-1.1.3-2.7-.6 1-1 1.6-1.1 1.8-.3.6-.4 1.3-.4 2.1 0 1.1.4 2.3 1.1 3.4.8 1.2 3.9 1.9 9.3 1.9 2.3 0 4.5-.1 6.7-.2 2.1-.1 4.2-.3 6.2-.5.6-.1.9-1.3.9-3.7-.1-.8-.1-1.6-.2-2.4m-1.2 1.5-4.6-2.5c0-.2.1-.4.3-.6.2-.2.4-.5.6-.7l.6-.6c.2-.2.4-.2.5-.2.5 0 1.1.6 1.7 1.8.6 1.1.9 2 .9 2.6.1.1.1.2 0 .2"/><path class="st19" d="m216.3 334.9-.6 2.5c-2.2.7-3.3 2.7-3.3 5.8 0 1.7.4 3.1 1.3 4.5.9 1.3 2.2 2.1 3.9 2.5v-10.6c0-1.1.1-2 .2-2.6.2-.6.5-1.1 1.1-1.5.6-.4 1.4-.6 2.3-.6 1.5 0 2.8.3 3.7.9 1 .6 1.8 1.6 2.4 3 .7 1.3 1 2.8 1 4.3 0 1.3-.3 2.6-.8 3.9-.5 1.3-1.4 2.5-2.6 3.6-1.2 1.1-2.7 1.8-4.7 2.2v6.2h-2.9v-6.2c-2 0-3.9-.9-5.6-2.6-1.7-1.8-2.6-4-2.6-6.8 0-2.5.7-4.6 2.1-6.2 1.7-1.6 3.3-2.3 5.1-2.3m4.2 15.2c1.4-.2 2.5-1 3.5-2.3 1-1.3 1.5-3 1.5-5 0-1.9-.4-3.3-1.1-4.2-.7-.9-1.5-1.3-2.3-1.3-.6 0-1 .2-1.2.6-.3.4-.4 1.3-.4 2.6v9.6z"/><path class="st24" d="M44.9 276.5s11.4-91.5 91.3-152.9c0 0-5.3 81.1 27.2 107.4-19.6 25-33.4 43.8-33.4 43.8s-23.1-18.2-32.9-60.9C83 235 44.9 276.5 44.9 276.5M218.4 126c25.9 0 40.2 27.7 28.9 59.2-9.5 26.4-10.3 50.8 9.9 60.7 20.2 9.9 35.6-9.9 35.6-9.9s-8.9 32.7-45.9 32.7c-36.6 0-84.3-40.4-69.7-104.7 7.2-27.7 24.1-38 41.2-38"/><g><path class="st24" d="M318.4 214.2h-14.1V179h14.1c1.3 0 2.7.1 4.2.4 1.4.3 2.8.8 3.9 1.5 1.2.7 2.2 1.7 2.9 2.8.8 1.2 1.1 2.7 1.1 4.6 0 2-.6 3.7-1.7 5-.8 1-1.9 1.8-3.1 2.4.6.2 1.1.4 1.6.6.9.5 1.7 1.1 2.4 1.8s1.2 1.6 1.6 2.5c.4 1 .6 2 .6 3.2 0 1.9-.4 3.6-1.2 4.9-.8 1.3-1.8 2.4-3.1 3.2-1.3.8-2.7 1.4-4.3 1.7-1.6.4-3.2.6-4.9.6m-5.2-7.6h4.2c.6 0 1.3-.1 1.9-.2.6-.1 1.2-.3 1.8-.6.5-.3.9-.6 1.2-1.1.3-.5.5-1.1.5-1.8 0-1.2-.4-2.1-1.4-2.6-1-.5-2.4-.8-4.1-.8h-4.2v7.1zm0-13.9h4c1.4 0 2.6-.3 3.3-.9.7-.5 1.1-1.3 1.1-2.4 0-1-.4-1.7-1.1-2.2-.8-.5-2.1-.7-3.7-.7h-3.6v6.2zM354 215.1c-2.7 0-5.3-.5-7.6-1.3-2.3-.9-4.4-2.2-6.1-3.8-1.7-1.6-3-3.6-4-5.9-1-2.3-1.4-4.8-1.4-7.6s.5-5.4 1.4-7.6c1-2.3 2.3-4.2 4-5.8 1.7-1.6 3.7-2.8 6.1-3.7 2.3-.9 4.9-1.3 7.6-1.3 2.7 0 5.3.4 7.6 1.3s4.4 2.1 6.1 3.7c1.7 1.6 3 3.5 4 5.8s1.4 4.8 1.4 7.6-.5 5.3-1.4 7.6c-1 2.3-2.3 4.3-4 5.9-1.7 1.6-3.8 2.9-6.1 3.8-2.3.9-4.9 1.3-7.6 1.3m0-28.6c-1.4 0-2.7.3-3.8.8-1.1.5-2.1 1.2-3 2.1-.8.9-1.5 1.9-1.9 3.2-.5 1.2-.7 2.6-.7 4 0 1.5.2 2.9.7 4.1.5 1.2 1.1 2.3 1.9 3.2.8.9 1.8 1.6 2.9 2.1 2.3 1 5.3 1 7.6 0 1.1-.5 2.1-1.2 3-2.1.8-.9 1.5-2 1.9-3.2.5-1.2.7-2.6.7-4.1 0-1.4-.2-2.8-.7-4-.5-1.2-1.1-2.3-1.9-3.2-.8-.9-1.8-1.6-3-2.1-1-.6-2.3-.8-3.7-.8M407 214.2h-10.7l-7.4-13.6h-2.1v13.6h-9V179h13.5c1.7 0 3.3.2 4.9.5 1.6.3 3.1.9 4.4 1.8 1.3.8 2.3 2 3.1 3.4.8 1.4 1.2 3.1 1.2 5.2 0 2.4-.7 4.5-2 6.1-1.2 1.5-2.8 2.6-4.9 3.4l9 14.8zm-20.4-20.5h3.5c.7 0 1.3-.1 2-.2s1.3-.3 1.8-.6.9-.6 1.3-1.1c.3-.5.5-1.1.5-1.9 0-.7-.1-1.3-.4-1.7-.3-.4-.7-.8-1.1-1-.5-.2-1-.4-1.7-.5-.6-.1-1.3-.1-1.9-.1h-4v7.1zM423.1 214.2h-13.2V179h12.9c2.4 0 4.9.3 7.3.9 2.4.6 4.6 1.5 6.5 2.9 1.9 1.3 3.4 3.2 4.6 5.4 1.2 2.3 1.7 5.1 1.7 8.3 0 3.1-.6 5.7-1.7 8-1.1 2.2-2.7 4.1-4.5 5.5-1.9 1.4-4 2.5-6.3 3.2-2.6.7-5 1-7.3 1m-4.3-8.1h3.5c1.4 0 2.8-.2 4.2-.5 1.3-.3 2.5-.9 3.5-1.6 1-.7 1.8-1.7 2.4-2.9.6-1.2.9-2.8.9-4.6 0-1.9-.3-3.4-.9-4.6-.6-1.2-1.4-2.2-2.4-2.9-1-.7-2.1-1.2-3.4-1.5-1.3-.3-2.7-.5-4-.5h-3.7v19.1zM472.1 214.2h-24.8V179h24v7.9h-15.1v5.6h14.2v7.5h-14.2v6.2h15.9zM510.3 214.2h-10.2l-2.7-6.7h-12.7l-2.5 6.7h-10L487 179h8.6l.1.3 14.6 34.9zm-22.8-14.3h7.3l-3.6-10-3.7 10zM525.9 215.1c-2.3 0-4.4-.4-6.3-1-1.9-.7-3.5-1.7-4.8-2.9-1.3-1.3-2.3-2.8-3-4.5-.7-1.7-1-3.7-1-5.8V179h9.1v21.1c0 .9.1 1.7.3 2.5.2.8.6 1.5 1 2.1.5.6 1.1 1.1 1.8 1.4.8.4 1.7.5 2.8.5 1.1 0 2-.2 2.8-.5.8-.4 1.4-.8 1.9-1.4.5-.6.8-1.3 1-2.1.2-.8.3-1.7.3-2.5V179h9.2v21.8c0 2.1-.4 4.1-1.1 5.8-.7 1.8-1.8 3.3-3.1 4.5-1.3 1.2-3 2.2-4.8 2.9-1.7.8-3.8 1.1-6.1 1.1M579.1 214.2h-11.3l-7.3-11.7-6.9 11.7h-11l12.3-18.6-11.4-16.6h11.1l6.2 10.2 6-10.2h10.8l-11.2 16.6zM344.4 264.4h-9l.2-22.6-8.3 22.6h-6.5l-8-22.5.2 22.5h-8.7v-35.2h12.5l7.6 21.3 7.3-21.3h12.7zM368 265.3c-2.7 0-5.3-.4-7.6-1.3s-4.4-2.2-6.1-3.8c-1.7-1.6-3-3.6-4-5.9-1-2.3-1.4-4.8-1.4-7.6s.5-5.4 1.4-7.6c1-2.3 2.3-4.2 4-5.8 1.7-1.6 3.7-2.8 6.1-3.7 2.3-.9 4.9-1.3 7.6-1.3 2.7 0 5.3.4 7.6 1.3s4.4 2.1 6.1 3.7c1.7 1.6 3.1 3.5 4 5.8 1 2.3 1.4 4.8 1.4 7.6s-.5 5.3-1.4 7.6c-1 2.3-2.3 4.3-4 5.9-1.7 1.6-3.7 2.9-6.1 3.8-2.3.9-4.8 1.3-7.6 1.3m0-28.7c-1.4 0-2.7.3-3.8.8-1.1.5-2.1 1.2-3 2.1-.8.9-1.5 1.9-1.9 3.2-.4 1.2-.7 2.6-.7 4 0 1.5.2 2.9.7 4.1.5 1.2 1.1 2.3 1.9 3.2.8.9 1.8 1.6 2.9 2.1 2.3 1 5.3 1 7.6 0 1.1-.5 2.1-1.2 3-2.1.8-.9 1.5-2 1.9-3.2.5-1.3.7-2.6.7-4.1 0-1.4-.2-2.8-.7-4-.5-1.2-1.1-2.3-1.9-3.2-.8-.9-1.8-1.6-3-2.1-1-.5-2.3-.8-3.7-.8M423.8 264.4h-10l-13.3-21.5.2 21.5h-8.9v-35.2h10.1l13.2 21.5-.2-21.5h8.9zM445.6 264.4h-9.2v-27.2h-9.7v-8h28.6v8h-9.7zM488.8 264.4h-10.2l-2.7-6.7h-12.7l-2.5 6.7h-10l14.8-35.2h8.6l.1.3 14.6 34.9zM466 250.1h7.3l-3.6-10-3.7 10zM490.6 229.2h9.2v35.2h-9.2zM523.7 265.3c-2.8 0-5.4-.4-7.7-1.3-2.4-.9-4.4-2.2-6.1-3.8-1.7-1.6-3-3.6-4-5.8-1-2.2-1.4-4.8-1.4-7.6s.5-5.4 1.5-7.6c1-2.3 2.3-4.2 4.1-5.8 1.7-1.6 3.8-2.8 6.1-3.7 2.3-.9 4.8-1.3 7.5-1.3 2.8 0 5.3.4 7.7 1.3 2.4.8 4.3 2 5.8 3.4l.3.3-5.9 6.7-.3-.4c-.8-.9-1.8-1.6-3-2.2-1.3-.6-2.7-.9-4.3-.9-1.4 0-2.7.3-3.8.8-1.2.5-2.2 1.2-3.1 2.1-.9.9-1.5 2-2 3.2-.5 1.2-.7 2.6-.7 4.1 0 1.5.2 2.9.7 4.2.4 1.3 1.1 2.4 1.9 3.3.8.9 1.9 1.6 3.1 2.1 1.2.5 2.7.8 4.3.8.9 0 1.8-.1 2.7-.2.7-.1 1.4-.3 2-.6v-5.5h-6.5v-7.6h15v18.9l-.2.1c-1.7.9-3.7 1.6-6 2.2-2.6.5-5.1.8-7.7.8M575.3 264.4h-10.1L552 242.9l.2 21.5h-9v-35.2h10.2l13.2 21.5-.2-21.5h8.9zM606.3 264.4h-24.8v-35.2h23.9v7.9h-15v5.6h14.2v7.5h-14.2v6.2h15.9zM334.6 164.9c-2.3 0-4.4-.4-6.3-1-1.9-.7-3.5-1.7-4.8-2.9-1.3-1.3-2.3-2.8-3-4.5-.7-1.7-1.1-3.7-1.1-5.8v-21.8h9.1V150c0 .9.1 1.7.3 2.5.2.8.6 1.5 1 2.1.5.6 1.1 1.1 1.8 1.4.8.4 1.7.5 2.8.5 1.1 0 2-.2 2.8-.5.8-.4 1.4-.8 1.8-1.4.5-.6.8-1.3 1-2.1.2-.8.3-1.7.3-2.5v-21.1h9.2v21.8c0 2.1-.4 4.1-1.1 5.8-.7 1.8-1.8 3.3-3.1 4.5-1.3 1.2-3 2.2-4.8 2.9-1.6.7-3.7 1-5.9 1M371.5 164h-9.2v-27.2h-9.7v-8h28.6v8h-9.7z"/><path transform="translate(-.193 .41)" class="st24" d="M305.2 128.8h9.2V164h-9.2z"/></g></svg>
