<?xml version="1.0" standalone="no"?>
<!DOCTYPE svg PUBLIC "-//W3C//DTD SVG 20010904//EN"
 "http://www.w3.org/TR/2001/REC-SVG-20010904/DTD/svg10.dtd">
<svg version="1.0" xmlns="http://www.w3.org/2000/svg"
 width="908.000000pt" height="908.000000pt" viewBox="0 0 908.000000 908.000000"
 preserveAspectRatio="xMidYMid meet">
<metadata>
Created by potrace 1.14, written by Peter Selinger 2001-2017
</metadata>
<g transform="translate(0.000000,908.000000) scale(0.100000,-0.100000)"
fill="#000000" stroke="none">
<path d="M3285 7269 c-116 -93 -279 -225 -289 -234 -6 -6 -47 -42 -91 -80
-267 -230 -562 -525 -815 -815 -30 -34 -59 -68 -65 -74 -43 -49 -157 -189
-292 -361 -85 -107 -350 -483 -398 -562 -5 -9 -34 -55 -64 -102 -84 -132 -251
-419 -251 -430 0 -5 -3 -11 -7 -13 -12 -5 -260 -488 -325 -633 -54 -119 -78
-175 -77 -180 0 -3 -9 -22 -19 -43 -29 -55 -57 -125 -55 -134 2 -5 -2 -8 -7
-8 -6 0 -10 -8 -10 -17 0 -10 -6 -29 -13 -43 -11 -22 -49 -116 -53 -130 0 -3
-6 -18 -13 -35 -6 -16 -23 -61 -37 -100 -14 -38 -28 -77 -31 -85 -4 -8 -7 -18
-8 -22 -2 -5 -4 -10 -5 -13 -1 -3 -3 -8 -5 -12 -1 -5 -4 -15 -8 -23 -10 -26
-79 -234 -82 -250 -2 -8 -10 -35 -18 -60 -31 -91 -111 -379 -122 -435 -2 -11
-13 -56 -25 -100 -11 -44 -22 -89 -25 -100 -2 -11 -11 -54 -19 -95 -9 -41 -18
-86 -21 -100 -3 -14 -8 -41 -11 -60 -3 -19 -7 -42 -9 -50 -2 -8 -7 -34 -10
-58 l-6 -43 38 42 c21 23 54 59 73 79 19 20 64 70 100 110 36 40 74 82 85 94
99 109 129 143 190 211 39 44 81 91 95 106 14 15 45 51 70 80 25 29 52 60 60
69 8 8 42 47 75 85 80 93 117 135 135 155 8 9 37 43 65 75 27 33 52 62 55 65
10 9 75 85 115 134 22 27 48 58 59 70 10 11 35 41 55 66 20 25 61 74 91 110
30 36 69 83 85 104 89 114 128 162 138 171 7 6 17 18 22 27 6 9 50 70 99 135
118 156 160 212 181 246 17 27 27 28 31 4 6 -31 66 -253 80 -295 9 -26 17 -51
18 -57 5 -29 90 -274 112 -322 8 -17 14 -34 14 -38 0 -26 227 -506 243 -513 4
-2 7 -7 7 -12 0 -11 87 -162 139 -239 22 -34 41 -67 41 -72 0 -5 4 -9 8 -9 5
0 14 -11 20 -25 7 -14 16 -31 22 -38 6 -7 42 -55 82 -107 65 -87 167 -211 209
-252 10 -10 23 -25 31 -35 7 -10 48 -51 91 -90 l79 -73 202 268 c167 222 447
589 479 627 28 35 467 598 510 655 l29 38 -48 43 c-68 63 -120 116 -173 179
-25 30 -49 57 -53 58 -5 2 -8 10 -8 18 0 8 -4 14 -10 14 -5 0 -10 6 -10 14 0
8 -4 16 -8 18 -10 4 -92 124 -92 134 0 4 -6 15 -14 23 -33 37 -216 422 -216
453 0 6 -6 24 -14 41 -27 61 -46 117 -40 117 4 0 2 6 -4 13 -7 9 -33 84 -48
140 -1 4 -2 8 -4 10 -1 1 -3 9 -5 17 -2 8 -17 69 -34 135 -17 66 -34 131 -36
145 -3 14 -7 35 -10 48 -3 12 -7 32 -10 45 -3 12 -7 33 -10 47 -3 14 -7 36
-10 50 -6 32 -23 124 -30 170 -3 19 -10 60 -15 90 -5 30 -11 73 -14 95 -3 22
-8 60 -12 85 -10 68 -12 89 -19 165 -3 39 -8 81 -10 95 -4 24 -14 139 -20 230
-16 218 -20 375 -20 758 0 243 0 442 0 441 0 0 -22 -18 -50 -40z"/>
<path d="M6307 7224 c-1 -1 -45 -5 -97 -9 -52 -3 -97 -8 -100 -10 -3 -2 -23
-6 -45 -9 -73 -12 -200 -49 -245 -73 -14 -7 -30 -13 -36 -13 -18 0 -208 -107
-241 -135 -6 -5 -28 -21 -48 -35 -66 -45 -242 -224 -282 -287 -9 -15 -21 -31
-25 -34 -12 -8 -101 -151 -129 -206 -13 -26 -27 -49 -31 -51 -5 -2 -8 -9 -8
-15 0 -6 -13 -38 -29 -71 -27 -57 -40 -88 -47 -111 -2 -5 -24 -68 -48 -140
-41 -117 -85 -293 -100 -400 -4 -23 -9 -52 -11 -65 -10 -51 -20 -135 -32 -270
-9 -103 -10 -470 -1 -560 4 -36 9 -89 12 -119 3 -30 8 -67 11 -82 4 -15 8 -40
10 -56 6 -47 15 -93 35 -178 6 -27 14 -59 16 -70 2 -11 13 -51 24 -90 12 -38
23 -77 25 -85 16 -71 115 -311 183 -445 68 -135 216 -371 289 -460 4 -5 28
-35 53 -65 95 -116 237 -263 350 -363 74 -66 262 -207 330 -248 30 -18 57 -35
60 -38 20 -23 304 -165 417 -210 102 -40 233 -83 293 -97 19 -4 40 -9 45 -11
22 -6 112 -24 144 -29 18 -2 36 -6 40 -8 40 -24 542 -25 614 -1 7 2 28 6 47 9
199 29 508 151 652 258 12 10 46 35 73 55 111 83 231 203 316 318 24 33 46 62
49 65 13 12 101 161 135 229 20 40 50 107 66 150 l29 76 -53 -55 c-189 -197
-450 -350 -657 -384 -19 -3 -46 -8 -60 -11 -35 -7 -176 -7 -230 0 -141 19
-298 80 -436 170 -72 48 -244 205 -244 224 0 4 -11 21 -25 37 -14 16 -25 34
-25 41 0 6 -4 13 -8 15 -9 3 -72 129 -72 142 0 5 -6 22 -14 39 -7 18 -19 52
-26 76 -11 41 -14 54 -24 99 -5 22 -18 116 -22 162 -4 45 -4 263 1 315 11 135
47 361 71 445 8 30 17 64 19 75 11 62 53 205 81 280 4 11 8 25 9 30 2 6 24 71
49 145 60 173 109 368 121 480 2 14 4 25 5 25 5 0 12 137 13 255 1 144 -4 215
-28 355 -7 42 -10 53 -46 175 -55 184 -195 417 -325 540 -152 143 -361 255
-534 286 -19 3 -42 7 -50 9 -48 10 -246 25 -253 19z"/>
</g>
</svg>
