<?xml version="1.0" encoding="UTF-8"?>
<svg id="Calque_1" xmlns="http://www.w3.org/2000/svg" version="1.1" viewBox="0 0 130 149.5">
  <!-- Generator: Adobe Illustrator 29.0.0, SVG Export Plug-In . SVG Version: 2.1.0 Build 186)  -->
  <defs>
    <style>
      .st0 {
        fill: #000091;
      }

      .st1 {
        fill: #fff;
      }
    </style>
  </defs>
  <path class="st1" d="M64.8,1.6L1,38.3v73.4l63.8,36.7,63.8-36.7V38.3L64.8,1.6h0Z"/>
  <path class="st0" d="M65,3l62.4,35.9v71.7l-62.4,35.9L2.6,110.6V38.9L65,3M65,0L0,37.4v74.8l65,37.4,65-37.4V37.4L65,0h0Z"/>
  <polygon class="st0" points="65 8.7 7.6 41.7 7.6 107.8 65 140.8 122.4 107.8 122.4 41.7 65 8.7"/>
  <g>
    <path class="st1" d="M54.3,54.2h2.5c1.7,0,2.8.9,2.8,2.3s-.3,1.3-.9,1.6c.9.4,1.4,1.1,1.4,2,0,1.5-1.2,2.5-3.1,2.5h-2.6v-8.3h0ZM56,55.6v1.9h.8c.6,0,1-.3,1-1s-.4-.9-1-.9h-.8ZM56,58.9v2.2h1c.8,0,1.3-.4,1.3-1.1s-.5-1.1-1.3-1.1c0,0-1,0-1,0Z"/>
    <path class="st1" d="M66.6,54.2h1.7v5.1c0,2.2-1.3,3.5-3.4,3.5s-3.4-1.3-3.4-3.5v-5.1h1.7v5.2c0,1.1.6,1.8,1.7,1.8s1.7-.7,1.7-1.8c0,0,0-5.2,0-5.2Z"/>
    <path class="st1" d="M69.6,54.2h6.8v1.5h-2.6v6.8h-1.7v-6.8h-2.6v-1.5h0Z"/>
    <path class="st1" d="M39.6,76.1l.9.7c-.8,1-2,1.7-3.5,1.7-2.6,0-4.4-2-4.4-4.4s1.8-4.4,4.4-4.4,2.7.7,3.5,1.7l-.9.7c-.6-.8-1.5-1.4-2.6-1.4-1.9,0-3.2,1.5-3.2,3.4s1.3,3.4,3.2,3.4,2-.6,2.6-1.4Z"/>
    <path class="st1" d="M50.2,74.1c0,2.4-1.8,4.4-4.4,4.4s-4.4-2-4.4-4.4,1.8-4.4,4.4-4.4,4.4,2,4.4,4.4ZM49,74.1c0-1.9-1.3-3.4-3.2-3.4s-3.2,1.5-3.2,3.4,1.3,3.4,3.2,3.4,3.2-1.5,3.2-3.4Z"/>
    <path class="st1" d="M52,69.9h1.5l4.7,7v-7h1.1v8.3h-1.5l-4.7-7v7h-1.1v-8.3Z"/>
    <path class="st1" d="M60.9,69.9h6.7v1h-2.8v7.3h-1.1v-7.3h-2.8v-1h0Z"/>
    <path class="st1" d="M69.2,69.9h2.2c1.7,0,2.7.9,2.7,2.3s-.5,1.8-1.4,2.1l2.7,3.9h-1.3l-2.4-3.7c0,0-.2,0-.3,0h-1.1v3.7h-1.1v-8.3h0ZM70.3,70.8v2.8h1.1c.9,0,1.5-.5,1.5-1.4s-.6-1.4-1.5-1.4c0,0-1.1,0-1.1,0Z"/>
    <path class="st1" d="M84.6,74.1c0,2.4-1.8,4.4-4.4,4.4s-4.4-2-4.4-4.4,1.8-4.4,4.4-4.4,4.4,2,4.4,4.4ZM83.4,74.1c0-1.9-1.3-3.4-3.2-3.4s-3.2,1.5-3.2,3.4,1.3,3.4,3.2,3.4,3.2-1.5,3.2-3.4ZM78.3,69.2l1.3-1.6h1.2l1.3,1.6h-.9l-1.1-1.1-1.1,1.1h-.9,0Z"/>
    <path class="st1" d="M86.4,69.9h1.1v7.3h3.4v1h-4.5v-8.3h0Z"/>
    <path class="st1" d="M92.5,69.9h4.5v.9h-3.4v2.7h2.9v.9h-2.9v2.8h3.4v.9h-4.5v-8.3h0ZM94.3,69.2l1.3-1.6h1.2l-1.5,1.6h-1Z"/>
    <path class="st1" d="M35.3,85.6h2.4c1.7,0,2.7.9,2.7,2.3s-1,2.3-2.7,2.3h-1.3v3.7h-1.1v-8.3h0ZM36.4,86.5v2.8h1.3c1,0,1.5-.5,1.5-1.4s-.6-1.4-1.5-1.4c0,0-1.3,0-1.3,0Z"/>
    <path class="st1" d="M43.5,85.6h1.5l3.3,8.3h-1.2l-1-2.5h-3.8l-1,2.5h-1.2s3.3-8.3,3.3-8.3ZM45.8,90.5l-1.5-3.9-1.5,3.9h3.1Z"/>
    <path class="st1" d="M49.8,85.6h2.2c1.7,0,2.7.9,2.7,2.3s-.5,1.8-1.4,2.1l2.7,3.9h-1.3l-2.4-3.7c0,0-.2,0-.3,0h-1.1v3.7h-1.1v-8.3h0ZM50.9,86.5v2.8h1.1c1,0,1.5-.5,1.5-1.4s-.6-1.4-1.5-1.4c0,0-1.1,0-1.1,0Z"/>
    <path class="st1" d="M60.4,85.6h1.1v7.3h3.4v1h-4.5v-8.3h0Z"/>
    <path class="st1" d="M64.8,88.8l1-3.2h1.2l-1.2,3.2h-.9Z"/>
    <path class="st1" d="M68.7,85.6h4.5v.9h-3.4v2.7h2.9v.9h-2.9v2.8h3.4v.9h-4.5v-8.3h0ZM70.4,84.9l1.3-1.6h1.2l-1.5,1.6h-1Z"/>
    <path class="st1" d="M74.4,85.6h6.7v1h-2.8v7.3h-1.1v-7.3h-2.8v-1h0Z"/>
    <path class="st1" d="M84.3,85.6h1.5l3.3,8.3h-1.2l-1-2.5h-3.8l-1,2.5h-1.2s3.3-8.3,3.3-8.3ZM86.6,90.5l-1.6-3.9-1.6,3.9h3.1Z"/>
    <path class="st1" d="M88.9,85.6h6.7v1h-2.8v7.3h-1.1v-7.3h-2.8v-1h0Z"/>
  </g>
</svg>